<?xml version="1.0" encoding="utf-8"?>
<!-- Generator: Adobe Illustrator 24.2.3, SVG Export Plug-In . SVG Version: 6.00 Build 0)  -->
<svg version="1.1"
	 id="Layer_1" inkscape:version="0.91 r13725" sodipodi:docname="Visa_2006.svg" xmlns:cc="http://creativecommons.org/ns#" xmlns:dc="http://purl.org/dc/elements/1.1/" xmlns:inkscape="http://www.inkscape.org/namespaces/inkscape" xmlns:rdf="http://www.w3.org/1999/02/22-rdf-syntax-ns#" xmlns:sodipodi="http://sodipodi.sourceforge.net/DTD/sodipodi-0.dtd" xmlns:svg="http://www.w3.org/2000/svg"
	 xmlns="http://www.w3.org/2000/svg" xmlns:xlink="http://www.w3.org/1999/xlink" x="0px" y="0px" width="60px" height="60px"
	 viewBox="0 0 60 60" style="enable-background:new 0 0 60 60;" xml:space="preserve">
<style type="text/css">
	.st0{fill-rule:evenodd;clip-rule:evenodd;fill:#E7D767;}
	.st1{fill-rule:evenodd;clip-rule:evenodd;fill:#EADC72;}
	.st2{fill-rule:evenodd;clip-rule:evenodd;fill:#EDDF7D;}
	.st3{fill-rule:evenodd;clip-rule:evenodd;fill:#EFE18C;}
	.st4{fill-rule:evenodd;clip-rule:evenodd;fill:#344B84;}
	.st5{fill-rule:evenodd;clip-rule:evenodd;fill:#FFFFFF;}
</style>
<g>
	<path class="st0" d="M35.6,0.5l0.9,3l2-2.3l0.4,3l2.4-2l0.3,3.1l2.3-1.9l-0.2,3.1l2.8-1.6L46.2,8l2.7-1.3l-0.7,2.9l3-1l-0.9,3
		l2.9-0.8l-1.4,2.8l3.2-0.3L53.5,16l3-0.2l-1.9,2.4l3.2,0.2l-2,2.4l3,0.3l-2.3,2.1l3.1,0.9l-2.4,2l2.9,0.9l-2.7,1.6l2.8,1.4
		l-2.7,1.4l2.6,1.5l-2.9,1l2.5,2l-2.9,0.9l2.3,2L56,39.2l2.1,2.4L55,41.8l1.9,2.4l-3.1-0.1l1.5,2.8L52,46.1l1.3,2.7l-2.9-0.7l1,3
		l-2.9-0.9l0.8,2.9l-2.8-1.3l0.3,3.1l-2.7-1.5l0.2,3l-2.4-1.8l-0.2,3.1l-2.4-2l-0.4,3l-2-2.3l-0.9,3L34,57l-1,2.8l-1.6-2.6L30.2,60
		l-1.4-2.8l-1.5,2.6l-1-2.8l-1.9,2.5l-0.9-3l-2,2.3l-0.4-3l-2.4,2.1l-0.3-3.1L16,56.6l0.2-3.1L13.5,55l0.3-3.1l-2.7,1.4l0.8-3l-3,1
		l0.9-3L7,49.2l1.4-2.8l-3.2,0.4l1.5-2.7l-3,0.2l1.9-2.4l-3.2-0.2l2-2.4l-3-0.3l2.3-2.1L0.6,36L3,34.1l-2.9-1l2.7-1.6L0,30.1
		l2.7-1.4l-2.6-1.5l2.9-1l-2.5-1.9l2.9-0.9l-2.3-2L4.2,21l-2.1-2.4l3.1-0.3l-1.9-2.4L6.4,16L5,13.5l3,0.3l-1.4-2.7l3,0.8l-1-3
		l2.9,0.9L10.8,7l2.8,1.3l-0.3-3.1L16,6.7l-0.2-3l2.4,1.8l0.2-3.1l2.4,2l0.4-3l2,2.3l0.9-3l2,2.4l1-2.9l1.6,2.6L29.8,0l1.4,2.7
		l1.5-2.6l1,2.9L35.6,0.5L35.6,0.5z"/>
	<path class="st1" d="M30,51.5c11.9,0,21.6-9.7,21.6-21.6c0-11.8-9.7-21.5-21.6-21.5S8.4,18.1,8.4,30S18.1,51.5,30,51.5L30,51.5z"/>
	<path class="st2" d="M30,49.1c10.6,0,19.2-8.6,19.2-19.2c0-10.5-8.6-19.1-19.2-19.1S10.8,19.4,10.8,30C10.8,40.5,19.4,49.1,30,49.1
		L30,49.1z"/>
	<path class="st3" d="M30,48c9.9,0,18-8.1,18-18.1c0-9.9-8.1-18-18-18s-18,8.1-18,18C12,39.9,20.1,48,30,48z"/>
	<path class="st0" d="M30,46.4c9,0,16.4-7.4,16.4-16.4S39,13.7,30,13.7S13.6,21,13.6,30S21,46.4,30,46.4z"/>
	<path class="st1" d="M30,44.9c8.2,0,14.9-6.7,14.9-14.9S38.2,15.1,30,15.1S15.1,21.8,15.1,30S21.8,44.9,30,44.9z"/>
	<path class="st4" d="M12.2,20.4H16c0.2,0,0.5,0,0.7,0c0.6,0.1,1.2,0.4,1.6,0.9c0.2,0.2,0.5,0.6,0.6,1H19c0,0,0.1,0,0.3-0.1
		c0.6-0.1,1.2-0.3,2.2-0.3c0.4,0,1,0,1.5,0.1s0.9,0.2,1.2,0.5V22h4l0.1,0.8v0.7l0.7-1.1l0.2-0.4h2.5l0.2-1l0.1-0.7h4.5
		c0.2,0,0.5,0,0.7,0c0.6,0.1,1.2,0.4,1.6,0.9c0.2,0.2,0.5,0.6,0.6,1h0.1c0,0,0.1,0,0.3-0.1c0.6-0.1,1.3-0.3,2.2-0.3
		c0.5,0,1,0,1.5,0.1c0.6,0.1,1.1,0.3,1.5,0.7c0.1,0.1,0.2,0.3,0.4,0.5l0.6-2.7l0.2-0.7h4.1L49.6,21l-1.8,8l-0.1,0.7h-7
		c-0.2,0-0.3,0-0.6,0c-0.5,0-1,0-1.4-0.1c-0.6-0.2-1-0.6-1.2-1.1s-0.4-1.1-0.2-1.8c-0.6,0.3-1.3,0.5-2.1,0.5h-0.9L34,29l-0.1,0.7h-4
		l0.2-1.1l0.5-2.1l-3.1,4.7l-0.2,0.4h-4.5l0.9-1.4l1.4-2l-0.3-2L24,28.9l-0.1,0.7h-3.6c-0.2,0-0.3,0-0.6,0c-0.5,0-1,0-1.5-0.1
		c-0.5-0.2-0.9-0.6-1.2-1.1c-0.2-0.5-0.3-1.1-0.2-1.8c-0.6,0.3-1.3,0.5-2.1,0.5H14L13.6,29l-0.1,0.7H9.4l0.2-1.1l1.7-7.5l0.1-0.7
		H12.2L12.2,20.4L12.2,20.4z"/>
	<path class="st5" d="M12.2,21.3H16c1.1,0,2.4,0.8,2,2.5c-0.3,1.6-1.6,2.5-3.1,2.5h-1.6l-0.6,2.5h-2.2L12.2,21.3L12.2,21.3z
		 M39.4,23.2c0.6-0.1,1.4-0.3,2.4-0.3c1.4,0,3,0.4,2.6,2.1l-0.9,3.9h-2.1l0.1-0.6c-1.1,1-3.9,1.1-3.4-1.3c0.3-1.5,1.9-1.9,4.2-1.9
		c0.1-0.7-0.3-0.8-1.1-0.8s-1.7,0.2-2,0.4L39.4,23.2L39.4,23.2z M40.3,26.8c-0.3,0.4,0.1,0.8,0.6,0.8s1-0.2,1.1-0.8
		c0-0.2,0.1-0.3,0.1-0.6h-0.5C41.1,26.3,40.5,26.4,40.3,26.8L40.3,26.8z M19,23.2l-0.2,1.5c0.3-0.1,1.2-0.4,2-0.4s1.2,0.1,1.1,0.8
		c-2.3,0-3.8,0.5-4.1,1.9c-0.4,2.4,2.3,2.3,3.4,1.3L21,28.8h2.1l0.9-3.9c0.3-1.7-1.2-2.1-2.7-2.1C20.4,22.8,19.6,23.1,19,23.2
		L19,23.2z M19.9,26.8c0.2-0.4,0.9-0.5,1.2-0.5h0.5c0,0.2,0,0.3-0.1,0.6c-0.1,0.5-0.6,0.7-1.1,0.8C20,27.6,19.6,27.2,19.9,26.8
		L19.9,26.8z M25,23h2.1l0.3,3.3l2-3.3h2.2l-5,7.8h-2.4l1.6-2.3L25,23z M46.5,20.8l-1.8,8h2.2l1.8-8H46.5z M32.6,21.3l-1.7,7.4h2.2
		l0.6-2.5h1.6c1.5,0,2.8-0.9,3.1-2.5c0.4-1.7-0.9-2.5-2-2.5L32.6,21.3L32.6,21.3L32.6,21.3z M34.4,22.8h1.1c0.6,0,0.9,0.4,0.8,1
		c-0.1,0.6-0.7,1.1-1.3,1.1h-1L34.4,22.8L34.4,22.8z M14,22.8l-0.5,2.1h1c0.6,0,1.2-0.5,1.3-1.1s-0.2-1-0.8-1H14L14,22.8L14,22.8z
		 M13.6,39.4h-0.9l-0.8-4.2h0.9l0.6,3.3l1.7-3.3h0.8L13.6,39.4L13.6,39.4z M19.8,39.4h-3.1l0.8-4.2h3l-0.1,0.7h-2.1L18.1,37h1.8
		l-0.1,0.7H18l-0.2,1.2H20L19.8,39.4z M25.6,39.4h-0.9l-0.5-1.7h-1.1l-0.3,1.7h-0.9l0.8-4.2h1.8c0.3,0,0.7,0,0.9,0
		c0.2,0.1,0.4,0.2,0.6,0.4c0.1,0.2,0.2,0.4,0.2,0.7c0,0.2-0.1,0.5-0.2,0.8c-0.2,0.2-0.5,0.3-0.9,0.4L25.6,39.4L25.6,39.4z
		 M23.2,37.1h1.2c0.3,0,0.6-0.1,0.7-0.2c0.1-0.1,0.2-0.3,0.2-0.4c0-0.1,0-0.2-0.1-0.3c0-0.1-0.1-0.2-0.2-0.2s-0.3,0-0.5,0h-0.9
		L23.2,37.1L23.2,37.1z M28.4,39.4h-0.9l0.8-4.2h0.9L28.4,39.4L28.4,39.4z M31.6,39.4h-0.9l0.8-4.2h2.9l-0.1,0.7h-2.1L32,37h1.7
		l-0.1,0.7h-1.7L31.6,39.4z M36.3,39.4h-0.9l0.8-4.2h0.9L36.3,39.4z M41.7,39.4h-3.1l0.8-4.2h3l-0.1,0.7h-2.1L40,37h1.8l-0.1,0.7
		h-1.8l-0.2,1.2h2.2L41.7,39.4z M43.7,39.4l0.8-4.2h1.4c0.3,0,0.6,0,0.8,0s0.4,0.1,0.6,0.3c0.2,0.1,0.3,0.3,0.5,0.6
		c0.1,0.2,0.2,0.6,0.2,0.9s-0.1,0.8-0.2,1.1c-0.1,0.3-0.4,0.6-0.6,0.8c-0.2,0.2-0.4,0.3-0.7,0.3c-0.3,0.1-0.6,0.1-1,0.1L43.7,39.4
		L43.7,39.4L43.7,39.4z M44.6,38.7h0.8c0.2,0,0.4,0,0.6,0l0.5-0.3c0.1-0.1,0.2-0.3,0.3-0.6s0.1-0.6,0.1-0.9c0-0.2,0-0.4-0.1-0.6
		c0-0.2-0.2-0.3-0.3-0.4c-0.2,0-0.4-0.1-0.7-0.1h-0.5L44.6,38.7L44.6,38.7z"/>
	<polygon class="st4" points="13.4,39.1 12.5,39.1 11.7,34.9 12.6,34.9 13.2,38.2 14.8,34.9 15.5,34.9 	"/>
	<polygon class="st4" points="19.6,39.1 16.5,39.1 17.3,34.9 20.3,34.9 20.2,35.6 18,35.6 17.8,36.7 19.6,36.7 19.5,37.3 17.7,37.3 
		17.5,38.5 19.7,38.5 	"/>
	<path class="st4" d="M25.9,36.1c0-0.2-0.1-0.4-0.2-0.7c-0.2-0.2-0.3-0.3-0.6-0.4c-0.2,0-0.5-0.1-0.9-0.1h-1.8l-0.8,4.2h0.9l0.3-1.7
		H24l0.5,1.7h0.9l0,0l-0.6-1.8c0.4-0.1,0.7-0.2,0.9-0.5C25.8,36.6,25.9,36.4,25.9,36.1z M24.9,36.6c-0.1,0.1-0.3,0.2-0.7,0.2H23
		l0.2-1.2h0.9c0.2,0,0.4,0,0.5,0s0.2,0,0.3,0.1c0,0.1,0.1,0.2,0.1,0.3C25,36.3,25,36.4,24.9,36.6z"/>
	<polygon class="st4" points="28.2,39.1 27.3,39.1 28.1,34.9 29,34.9 	"/>
	<polygon class="st4" points="31.3,39.1 30.5,39.1 31.2,34.9 34.2,34.9 34,35.6 32,35.6 31.8,36.7 33.5,36.7 33.4,37.3 31.7,37.3 	
		"/>
	<polygon class="st4" points="36.1,39.1 35.2,39.1 36,34.9 36.9,34.9 	"/>
	<polygon class="st4" points="41.4,39.1 38.4,39.1 39.2,34.9 42.1,34.9 42,35.6 39.9,35.6 39.7,36.7 41.5,36.7 41.3,37.3 39.6,37.3 
		39.4,38.5 41.6,38.5 	"/>
	<path class="st4" d="M47.4,35.9c-0.1-0.2-0.2-0.4-0.5-0.6c-0.2-0.1-0.3-0.2-0.6-0.3c-0.2,0-0.4-0.1-0.8-0.1h-1.4l-0.8,4.2l0,0H45
		c0.3,0,0.6,0,1-0.1c0.2,0,0.5-0.1,0.7-0.3c0.3-0.2,0.5-0.5,0.6-0.8c0.2-0.3,0.2-0.7,0.2-1.1C47.5,36.5,47.5,36.2,47.4,35.9z
		 M46.5,37.5c-0.1,0.3-0.2,0.5-0.4,0.6c-0.1,0.1-0.2,0.2-0.4,0.3c-0.1,0.1-0.3,0.1-0.6,0.1h-0.8l0,0l0.6-2.9h0.5
		c0.2,0,0.4,0,0.7,0.1c0.2,0.1,0.3,0.2,0.4,0.4c0.1,0.1,0.1,0.4,0.1,0.6C46.6,37,46.6,37.2,46.5,37.5z"/>
</g>
</svg>
