<svg width="30" height="30" viewBox="0 0 30 30" fill="none" xmlns="http://www.w3.org/2000/svg">
<g clip-path="url(#clip0_615_930)">
<path d="M3 21.664C3.05469 21.4765 3.11719 21.289 3.15625 21.0937C3.79687 18.4062 6.14062 16.5234 8.89844 16.5078C12.4297 16.4922 15.9688 16.5 19.5 16.5156C20 16.5156 20.5078 16.625 21.0078 16.6875C21.0703 16.6953 21.1328 16.7343 21.2109 16.7578C20.4531 17.3437 19.8906 18.0547 19.5547 18.9375C19.5234 19.0156 19.3906 19.0781 19.2891 19.1015C17.2578 19.6015 15.6953 21.9375 15.2656 24C14.9186 25.6481 15.6194 27.3539 16.4773 28.8033C16.7272 29.2254 16.9927 29.6451 17.25 30C18.2578 30.0078 15.3359 30.7578 15.2656 30.7578C11.5234 30.7578 7.78906 30.75 4.04688 30.7656C3.53906 30.7656 3.25 30.4922 3 30.1172C3 28.2968 3 23.4843 3 21.664Z" fill="url(#paint0_linear_615_930)"/>
<path d="M14.9531 1.50781C15.1953 1.5625 15.4296 1.61719 15.6718 1.67187C18.5312 2.32812 20.5937 4.97656 20.5 7.875C20.4062 10.8984 18.25 13.4063 15.3125 13.9141C11.9687 14.4922 8.7187 12.2344 8.10933 8.92188C7.49214 5.55469 9.6562 2.32031 12.9765 1.625C13.1328 1.59375 13.2812 1.53906 13.4375 1.5C13.9375 1.50781 14.4453 1.50781 14.9531 1.50781Z" fill="url(#paint1_linear_615_930)"/>
<path fill-rule="evenodd" clip-rule="evenodd" d="M21.75 30.0077C24.6495 30.0077 27 27.6572 27 24.7577C27 21.8582 24.6495 19.5077 21.75 19.5077C18.8505 19.5077 16.5 21.8582 16.5 24.7577C16.5 27.6572 18.8505 30.0077 21.75 30.0077ZM19.5 23.4767V23.7873L19.5057 23.8225L19.5057 23.8225L19.5057 23.8225C19.511 23.8543 19.5161 23.8858 19.5191 23.9179C19.5574 24.2152 19.6381 24.4991 19.8255 24.743C20.0361 25.0163 20.3205 25.1722 20.6679 25.1949C20.8602 25.2078 21.0532 25.2048 21.2486 25.2017H21.2486H21.2486C21.3353 25.2003 21.4225 25.1989 21.5103 25.1989L21.5101 25.1386C21.5099 25.0752 21.5096 25.0078 21.5117 24.9403C21.513 24.8883 21.5171 24.8337 21.5308 24.783C21.5841 24.5937 21.7605 24.4604 21.9616 24.4591L22.0217 24.4583C22.1363 24.4567 22.2521 24.455 22.365 24.4698C22.5742 24.4951 22.7342 24.683 22.7397 24.8897C22.7415 24.9595 22.7409 25.0287 22.7403 25.0993V25.0994V25.0994L22.7403 25.0995C22.74 25.1353 22.7397 25.1715 22.7397 25.2082H22.793C22.8717 25.2074 22.9505 25.2076 23.0293 25.2078H23.0294H23.0294H23.0294C23.2069 25.2082 23.3846 25.2086 23.5616 25.1976C24.0553 25.1669 24.389 24.907 24.5859 24.4711C24.6775 24.2698 24.7172 24.0552 24.7391 23.838C24.7401 23.828 24.7434 23.818 24.7468 23.808L24.75 23.798V23.4874L24.7377 23.4507L24.7254 23.4141C24.6625 23.2301 24.4888 23.1075 24.285 23.1075C24.0458 23.1066 23.8072 23.1069 23.5664 23.1072H23.5663H23.5662C23.445 23.1074 23.3233 23.1075 23.2006 23.1075V22.9849C23.2006 22.6983 23.0064 22.5077 22.7137 22.5077H21.5349C21.2436 22.5077 21.0481 22.6996 21.0481 22.9849V23.1075H20.9893H19.9951C19.7434 23.1075 19.5807 23.2261 19.5096 23.4621C19.5085 23.4662 19.5058 23.4696 19.5027 23.4734L19.5 23.4767ZM22.8942 23.1048H21.3558C21.3558 23.0622 21.3558 23.0235 21.3571 22.9835C21.3571 22.8663 21.4159 22.8076 21.5349 22.8076H22.2925H22.7274C22.83 22.8076 22.8929 22.8689 22.8942 22.9689V23.1048ZM19.5 26.8975V24.8275C19.5038 24.8307 19.5077 24.8335 19.5115 24.8364C19.5189 24.8418 19.5261 24.8471 19.5315 24.8541C19.549 24.8757 19.5659 24.8978 19.5828 24.9199L19.5828 24.9199C19.6118 24.9579 19.6408 24.996 19.6737 25.0314C19.9704 25.3513 20.3492 25.4939 20.7841 25.5059C20.9403 25.5105 21.0966 25.5094 21.2528 25.5083L21.253 25.5083C21.3223 25.5078 21.3917 25.5073 21.4611 25.5073H21.5089C21.5253 25.7778 21.7195 25.9565 21.9903 25.9565C22.0206 25.9565 22.051 25.9568 22.0813 25.9572L22.0814 25.9572C22.1522 25.958 22.2227 25.9588 22.2925 25.9551C22.473 25.9471 22.6084 25.8645 22.6891 25.7072C22.7105 25.6654 22.7224 25.62 22.7348 25.5729C22.7405 25.5509 22.7464 25.5285 22.7534 25.5059H22.7807C22.8605 25.5046 22.9402 25.504 23.0199 25.5034C23.1794 25.5022 23.3387 25.501 23.4973 25.4939C23.6341 25.4873 23.7736 25.4699 23.9062 25.4379C24.2508 25.3553 24.512 25.1514 24.7117 24.8688C24.7186 24.8592 24.7282 24.8524 24.7382 24.8454C24.7421 24.8426 24.7461 24.8398 24.75 24.8368V26.8962C24.709 26.9828 24.6392 27.0081 24.5435 27.0081C22.9298 27.0068 21.3175 27.0068 19.7038 27.0081C19.6108 27.0081 19.541 26.9828 19.5 26.8975ZM21.8177 24.9179V25.2072C21.8177 25.2318 21.8176 25.2565 21.8176 25.2812C21.8173 25.3551 21.817 25.4288 21.8191 25.5017C21.8191 25.5924 21.8834 25.655 21.9764 25.6564C22.0748 25.6577 22.1747 25.6577 22.2731 25.6564C22.3688 25.6564 22.4331 25.5924 22.4331 25.4991C22.4345 25.3045 22.4345 25.1099 22.4331 24.9152C22.4331 24.8219 22.3688 24.7593 22.2731 24.758C22.1747 24.7566 22.0776 24.7566 21.9805 24.758C21.882 24.758 21.8177 24.8206 21.8177 24.9179Z" fill="url(#paint2_linear_615_930)"/>
</g>
<defs>
<linearGradient id="paint0_linear_615_930" x1="4.88672" y1="16.4993" x2="11.1537" y2="32.6379" gradientUnits="userSpaceOnUse">
<stop stop-color="#FEB49C"/>
<stop offset="1" stop-color="#FD6B87"/>
</linearGradient>
<linearGradient id="paint1_linear_615_930" x1="9.29919" y1="1.5" x2="15.7785" y2="14.5654" gradientUnits="userSpaceOnUse">
<stop stop-color="#FEB49C"/>
<stop offset="1" stop-color="#FD6B87"/>
</linearGradient>
<linearGradient id="paint2_linear_615_930" x1="17.5878" y1="19.5077" x2="23.027" y2="30.4807" gradientUnits="userSpaceOnUse">
<stop stop-color="#FEB49C"/>
<stop offset="1" stop-color="#FD6B87"/>
</linearGradient>
<clipPath id="clip0_615_930">
<rect width="30" height="30" fill="white"/>
</clipPath>
</defs>
</svg>
