<svg width="206" height="60" viewBox="0 0 206 60" fill="none" xmlns="http://www.w3.org/2000/svg">
<g clip-path="url(#clip0_2553_12476)">
<path d="M5.92578 41.8797L7.92578 36.2797L7.02578 35.9797L6.02578 30.1797L8.52578 29.2797L9.32578 27.1797L10.0258 27.5797L18.2258 25.7797L19.7258 32.2797C19.9258 33.3797 19.9258 34.4797 19.6258 35.4797C18.5258 39.6797 14.5258 39.6797 14.5258 39.6797L13.2258 43.0797L5.92578 41.8797Z" fill="#7CC3EF"/>
<path d="M13.2256 43.2797L5.72559 41.9797L7.72559 36.3797L6.92559 36.0797L5.82559 30.1797L8.32559 29.2797L9.12559 27.1797L9.92559 27.5797L18.2256 25.6797L19.7256 32.2797C19.9256 33.3797 19.9256 34.4797 19.6256 35.5797C19.3256 36.5797 18.9256 37.3797 18.3256 38.0797C17.8256 38.5797 17.2256 39.0797 16.6256 39.3797C15.6256 39.8797 14.8256 39.8797 14.5256 39.8797L13.2256 43.2797ZM6.02559 41.7797L13.0256 42.9797L14.3256 39.5797H14.4256C14.4256 39.5797 15.4256 39.5797 16.5256 39.0797C18.0256 38.3797 18.9256 37.1797 19.4256 35.4797C19.7256 34.4797 19.7256 33.3797 19.5256 32.2797L18.1256 25.8797L9.92559 27.6797L9.32559 27.3797L8.52559 29.3797L6.12559 30.2797L7.12559 35.8797L8.02559 36.1797L6.02559 41.7797Z" fill="#0064CC"/>
<path d="M6.82546 36.8796L5.32546 29.8796C4.82546 27.4796 6.12546 25.5796 8.32546 24.3796L13.2255 21.4796C14.5255 20.6796 16.2255 20.6796 17.5255 21.4796C18.0255 21.7796 18.5255 22.1796 18.8255 22.8796C18.8255 22.8796 20.1255 26.1796 18.6255 27.7796C18.6255 27.7796 14.7255 25.8796 13.1255 27.9796C13.1255 27.9796 16.1255 29.9796 12.6255 33.0796L13.2255 35.5796L11.5255 35.8796C11.5255 35.8796 11.3255 32.9796 9.42546 32.9796C9.42546 32.9796 7.82546 33.0796 8.52546 36.5796L6.82546 36.8796Z" fill="#469BE3"/>
<path d="M17.9255 21.7796C16.8255 21.4796 15.6255 21.6796 14.7255 22.2796L9.82546 25.1796C7.62546 26.4796 6.32546 28.3796 6.82546 30.6796L8.12546 36.5796L6.82546 36.8796L5.32546 29.8796C4.82546 27.4796 6.12546 25.5796 8.32546 24.3796L13.2255 21.4796C14.5255 20.6796 16.2255 20.6796 17.5255 21.4796C17.6255 21.5796 17.7255 21.6796 17.9255 21.7796Z" fill="#1C79D8"/>
<path d="M14.3254 50.5797C14.3254 50.5797 11.8254 61.6797 -0.474609 64.4797V38.4797C-0.474609 38.4797 3.12539 37.3797 7.12539 39.3797L9.32539 42.5797H13.5254L13.9254 43.9797L24.4254 51.2797L28.7254 43.8797L32.8254 45.3797L27.9254 56.3797C27.2254 57.8797 25.5254 58.5797 24.0254 57.8797L13.6254 53.0797" fill="white"/>
<path d="M32.7254 45.4797L27.8254 56.4797C27.1254 57.9797 25.4254 58.6797 23.9254 57.9797L13.4254 53.0797C11.9254 56.5797 8.12539 62.4797 -0.474609 64.3797V62.0797C7.52539 59.9797 11.1254 54.2797 12.6254 50.9797L13.9254 51.5797H14.0254L23.2254 55.7797C24.7254 56.4797 26.5254 55.7797 27.1254 54.2797L31.3254 44.7797L32.7254 45.4797Z" fill="#B6D5F2"/>
<path d="M32.1254 38.0796L30.1254 38.2796L30.9254 40.3796L29.9254 42.6796L29.5254 43.5796L32.9254 44.4796L34.1254 41.8796C35.8254 41.7796 35.8254 40.4796 35.8254 40.4796C34.4254 39.9796 32.8254 38.6796 32.1254 38.0796Z" fill="#469BE3"/>
<path d="M32.9262 44.6796L29.3262 43.6796L29.8262 42.5796L30.8262 40.2796L29.9262 38.0796L32.1262 37.8796C32.8262 38.5796 34.4262 39.7796 35.7262 40.3796H35.8262V40.4796C35.8262 40.4796 35.8262 40.7796 35.6262 41.1796C35.4262 41.4796 35.0262 41.8796 34.1262 41.9796L32.9262 44.6796ZM29.6262 43.4796L32.7262 44.2796L33.8262 41.6796H33.9262C35.3262 41.5796 35.5262 40.7796 35.5262 40.4796C34.2262 39.8796 32.7262 38.6796 32.0262 37.9796L30.2262 38.0796L31.0262 40.0796L29.9262 42.4796L29.6262 43.4796Z" fill="#0064CC"/>
<path d="M-0.574219 64.6797V38.4797H-0.474219C-0.474219 38.4797 0.425781 38.1797 1.82578 38.1797C2.62578 38.1797 3.42578 38.2797 4.22578 38.3797C5.22578 38.5797 6.22578 38.8797 7.12578 39.2797L9.22578 42.4797H13.4258L13.8258 43.9797L24.2258 51.1797L28.5258 43.7797L32.8258 45.3797L27.9258 56.5797C27.6258 57.3797 27.0258 57.8797 26.2258 58.1797C25.4258 58.4797 24.6258 58.4797 23.8258 58.0797L13.4258 53.2797C13.0258 54.1797 12.4258 55.2797 11.6258 56.4797C10.3258 58.2797 8.82578 59.8797 7.12578 61.1797C4.92578 62.7797 2.42578 63.8797 -0.474219 64.5797L-0.574219 64.6797ZM-0.274219 38.5797V64.2797C5.92578 62.7797 9.52578 59.1797 11.5258 56.3797C12.6258 54.7797 13.3258 53.2797 13.7258 52.2797C14.1258 51.1797 14.3258 50.4797 14.3258 50.4797L14.5258 50.5797C14.5258 50.5797 14.3258 51.2797 13.9258 52.3797C13.8258 52.5797 13.7258 52.7797 13.6258 53.0797L24.0258 57.8797C24.7258 58.1797 25.5258 58.1797 26.2258 57.9797C26.9258 57.6797 27.5258 57.1797 27.8258 56.4797L32.6258 45.5797L28.7258 44.0797L24.4258 51.4797L13.7258 43.9797L13.3258 42.5797H9.12578L6.92578 39.2797C4.92578 38.2797 3.02578 38.1797 1.72578 38.1797C0.725781 38.3797 -0.0742188 38.4797 -0.274219 38.5797Z" fill="#0064CC"/>
<path d="M9.32559 42.4796L7.22559 42.8796L4.22559 38.3796H6.62559L9.32559 42.4796Z" fill="white"/>
<path d="M7.12539 42.9796L4.02539 38.1796L6.72539 38.0796L9.52539 42.4796L7.12539 42.9796ZM4.42539 38.4796L7.22539 42.7796L9.12539 42.4796L6.62539 38.4796H4.42539Z" fill="#0064CC"/>
<path d="M9.42578 42.3796L10.3258 44.3796H14.9258L13.9258 42.3796H9.42578Z" fill="white"/>
<path d="M10.126 44.5797L9.12598 42.2797H13.826L15.026 44.5797H10.126ZM9.52598 42.4797L10.226 44.2797H14.526L13.626 42.4797H9.52598Z" fill="#0064CC"/>
<path d="M8.72578 43.9797L8.42578 48.3797C8.42578 48.3797 7.82578 55.7797 2.92578 56.9797C2.92578 56.9797 0.725781 57.4797 -1.87422 57.1797L-3.07422 55.4797L-1.47422 53.8797C-1.47422 53.8797 -0.674219 54.2797 1.02578 54.3797C2.42578 54.4797 3.72578 53.8797 4.72578 52.8797C5.92578 51.5797 7.22578 49.3797 7.42578 45.5797L7.62578 43.7797L8.72578 43.9797Z" fill="#4B9BDB"/>
<path d="M-0.0742188 57.4796C-0.574219 57.4796 -1.17422 57.4796 -1.77422 57.3796C-1.77422 57.3796 -1.87422 57.3796 -1.87422 57.2796L-3.07422 55.5796C-3.07422 55.5796 -3.07422 55.4796 -3.07422 55.3796L-1.67422 53.6796C-1.67422 53.6796 -1.57422 53.5796 -1.47422 53.6796C-1.47422 53.6796 -0.674219 54.0796 1.02578 54.1796C2.42578 54.2796 3.72578 53.6796 4.62578 52.6796C5.72578 51.4796 7.02578 49.2796 7.22578 45.4796L7.42578 43.6796C7.42578 43.6796 7.42578 43.5796 7.52578 43.5796H7.62578L8.82578 43.8796C8.92578 43.8796 8.92578 43.9796 8.92578 43.9796L8.62578 48.3796C8.62578 48.3796 8.42578 50.2796 7.72578 52.2796C7.32578 53.4796 6.72578 54.4796 6.02578 55.1796C5.22578 56.1796 4.22578 56.7796 3.12578 57.0796C3.02578 57.1796 1.72578 57.4796 -0.0742188 57.4796ZM-1.67422 57.0796C0.825781 57.3796 2.92578 56.8796 3.02578 56.8796C5.42578 56.2796 6.82578 53.9796 7.42578 52.1796C8.12578 50.2796 8.32578 48.3796 8.32578 48.3796L8.62578 44.0796L7.62578 43.8796L7.42578 45.4796C7.32578 47.1796 7.02578 48.7796 6.42578 50.1796C6.02578 51.2796 5.42578 52.1796 4.72578 52.8796C3.82578 53.8796 2.52578 54.4796 1.12578 54.4796C1.02578 54.4796 1.02578 54.4796 0.925781 54.4796C-0.474219 54.3796 -1.27422 54.1796 -1.57422 53.9796L-2.87422 55.4796L-1.67422 57.0796Z" fill="#0064CC"/>
<path d="M7.22559 42.8796L9.42559 42.4796L10.2256 44.4796L8.72559 45.1796L7.32559 44.6796L7.22559 42.8796Z" fill="#4B9BDB"/>
<path d="M8.72539 45.2796L7.32539 44.7796L7.22539 44.6796L7.02539 42.8796C7.02539 42.7796 7.02539 42.7796 7.12539 42.7796L9.32539 42.3796C9.42539 42.3796 9.42539 42.3796 9.42539 42.4796L10.2254 44.4796C10.2254 44.5796 10.2254 44.5796 10.1254 44.6796L8.72539 45.2796C8.82539 45.2796 8.72539 45.2796 8.72539 45.2796ZM7.52539 44.5796L8.72539 44.9796L10.0254 44.3796L9.22539 42.5796L7.22539 42.9796L7.52539 44.5796Z" fill="#0064CC"/>
<path d="M27.726 45.6797L27.626 45.8797L28.826 46.4797L28.926 46.2797L27.726 45.6797Z" fill="#0064CC"/>
<path d="M27.4262 46.1797L27.3262 46.3797L27.8262 46.6797L27.9262 46.4797L27.4262 46.1797Z" fill="#0064CC"/>
<path d="M44.6261 13.1796C44.5261 13.2796 44.4261 13.2796 44.3261 13.1796C44.1261 13.0796 44.0261 12.8796 44.1261 12.6796L46.9261 4.97959C47.0261 4.77959 47.2261 4.67959 47.4261 4.77959C47.6261 4.87959 47.7261 5.07959 47.6261 5.27959L44.8261 12.9796C44.8261 13.0796 44.7261 13.1796 44.6261 13.1796Z" fill="white"/>
<path d="M44.7258 13.2796C44.6258 13.3796 44.4258 13.3796 44.3258 13.2796C44.0258 13.1796 43.9258 12.8796 44.0258 12.5796L46.8258 4.87964C46.8258 4.77964 46.9258 4.67964 47.1258 4.57964C47.2258 4.47964 47.4258 4.47964 47.5258 4.57964C47.8258 4.67964 47.9258 4.97964 47.8258 5.27964L44.9258 13.0796C44.9258 13.1796 44.8258 13.2796 44.7258 13.2796ZM47.1258 4.87964C47.0258 4.87964 47.0258 4.97964 47.0258 4.97964L44.2258 12.6796C44.1258 12.7796 44.2258 12.9796 44.4258 13.0796C44.5258 13.0796 44.6258 13.0796 44.6258 13.0796C44.7258 13.0796 44.7258 12.9796 44.7258 12.9796L47.5258 5.27964C47.6258 5.17964 47.5258 4.97964 47.3258 4.87964C47.2258 4.87964 47.2258 4.87964 47.1258 4.87964Z" fill="#0064CC"/>
<path d="M60.1256 27.9797C60.0256 27.9797 59.9256 28.0797 59.8256 27.9797L51.8256 26.3797C51.6256 26.3797 51.4256 26.0797 51.5256 25.8797C51.5256 25.6797 51.8256 25.4797 52.0256 25.5797L60.0256 27.1797C60.2256 27.1797 60.4256 27.4797 60.3256 27.6797C60.3256 27.7797 60.2256 27.8797 60.1256 27.9797Z" fill="white"/>
<path d="M60.2254 28.0796C60.1254 28.1796 60.0254 28.1796 59.8254 28.1796L51.8254 26.5796C51.5254 26.4796 51.3254 26.2796 51.4254 25.9796C51.4254 25.8796 51.5254 25.7796 51.6254 25.6796C51.7254 25.5796 51.8254 25.5796 52.0254 25.5796L60.0254 27.1796C60.3254 27.2796 60.5254 27.4796 60.4254 27.7796C60.4254 27.8796 60.3254 27.9796 60.2254 28.0796ZM51.7254 25.7796C51.6254 25.8796 51.6254 25.8796 51.6254 25.9796C51.6254 26.1796 51.7254 26.2796 51.8254 26.2796L59.8254 27.8796C59.9254 27.8796 59.9254 27.8796 60.0254 27.8796C60.1254 27.8796 60.1254 27.7796 60.1254 27.6796C60.1254 27.4796 60.0254 27.3796 59.9254 27.3796L51.9254 25.7796C51.9254 25.6796 51.8254 25.6796 51.7254 25.7796Z" fill="#0064CC"/>
<path d="M47.3256 20.3796C47.1256 20.4796 46.9256 20.3796 46.8256 20.1796C46.7256 19.9796 46.8256 19.7796 46.9256 19.6796L55.0256 15.0796C55.2256 14.9796 55.4256 15.0796 55.5256 15.2796C55.6256 15.4796 55.5256 15.6796 55.4256 15.7796L47.3256 20.3796Z" fill="white"/>
<path d="M47.4258 20.4797C47.2258 20.5797 46.8258 20.4797 46.7258 20.2797C46.6258 20.0797 46.6258 19.6797 46.9258 19.5797L55.0258 14.9797C55.2258 14.8797 55.6258 14.9797 55.7258 15.1797C55.8258 15.2797 55.8258 15.4797 55.8258 15.5797C55.8258 15.6797 55.7258 15.7797 55.6258 15.8797L47.4258 20.4797ZM47.2258 20.2797L55.3258 15.6797C55.4258 15.6797 55.4258 15.5797 55.4258 15.4797C55.4258 15.3797 55.4258 15.2797 55.4258 15.2797C55.3258 15.1797 55.1258 15.0797 55.0258 15.1797L46.9258 19.7797C46.8258 19.8797 46.7258 20.0797 46.8258 20.1797C46.9258 20.2797 47.1258 20.3797 47.2258 20.2797Z" fill="#0064CC"/>
<path d="M33.8256 44.1796L29.1256 42.0796L28.2256 44.1796L32.9256 46.2796L33.8256 44.1796Z" fill="white"/>
<path d="M32.9254 46.4796L28.0254 44.2796L29.0254 41.9796L33.9254 44.1796L32.9254 46.4796ZM28.4254 44.0796L32.8254 46.0796L33.6254 44.1796L29.2254 42.1796L28.4254 44.0796Z" fill="#0064CC"/>
<path d="M34.0262 32.9796L38.1262 38.9796L35.3262 40.8796C35.3262 40.8796 34.5262 41.0796 30.3262 35.4796L34.0262 32.9796Z" fill="#7CC3EF"/>
<path d="M38.326 39.0797L35.326 41.0797C35.126 41.0797 34.826 40.8797 34.326 40.4797C33.326 39.5797 32.026 37.9797 30.226 35.5797L30.126 35.4797L34.126 32.7797L38.326 39.0797ZM35.226 40.7797L37.926 38.9797L34.026 33.1797L30.626 35.4797C32.226 37.5797 33.426 39.0797 34.326 39.9797C34.826 40.5797 35.126 40.7797 35.226 40.7797Z" fill="#0064CC"/>
<path d="M28.8262 36.5796L33.6262 33.3796L29.7262 27.4796L24.9262 30.6796C24.3262 31.0796 24.1262 31.8796 24.6262 32.4796L27.1262 36.1796C27.4262 36.7796 28.2262 36.9796 28.8262 36.5796Z" fill="#469BE3"/>
<path d="M33.8254 33.3797L28.9254 36.6797C28.2254 37.0797 27.3254 36.9797 26.9254 36.2797L24.4254 32.5797C24.0254 31.8797 24.1254 30.9797 24.8254 30.5797L29.7254 27.2797L33.8254 33.3797ZM24.9254 30.8797C24.4254 31.2797 24.2254 31.9797 24.6254 32.4797L27.1254 36.1797C27.5254 36.6797 28.2254 36.8797 28.7254 36.4797L33.3254 33.3797L29.5254 27.7797L24.9254 30.8797Z" fill="#0064CC"/>
<path d="M29.626 27.4796L33.626 33.4796L46.726 29.1796C47.226 28.9796 47.426 28.3796 47.126 27.9796L39.726 17.0796C39.426 16.6796 38.726 16.5796 38.426 16.9796L29.626 27.4796Z" fill="white"/>
<path d="M33.3258 33.1796L33.5258 33.5796L46.5258 29.2796C47.0258 29.0796 47.2258 28.4796 46.9258 28.0796L46.5258 27.4796L32.9258 32.2796L33.3258 33.1796Z" fill="#7CC3EF"/>
<path d="M29.4256 29.9796L26.2256 32.0796L26.4256 32.3796L29.6256 30.2796L29.4256 29.9796Z" fill="#0064CC"/>
<path d="M30.326 31.3796L27.126 33.4796L27.326 33.7796L30.526 31.6796L30.326 31.3796Z" fill="#0064CC"/>
<path d="M31.2254 32.6797L28.0254 34.7797L28.2254 35.0797L31.4254 32.9797L31.2254 32.6797Z" fill="#0064CC"/>
<path d="M47.426 28.3797L46.926 29.0797L45.426 29.6797L37.626 18.0797L38.726 16.9797L39.526 16.6797L47.426 28.3797Z" fill="#469BE3"/>
<path d="M46.8258 29.3796L33.6258 33.6796L29.4258 27.4796L38.3258 16.8796C38.5258 16.6796 38.8258 16.4796 39.1258 16.4796C39.4258 16.4796 39.7258 16.6796 39.9258 16.8796L47.3258 27.8796C47.5258 28.1796 47.5258 28.4796 47.4258 28.7796C47.3258 28.9796 47.2258 29.1796 47.0258 29.2796C46.9258 29.2796 46.8258 29.2796 46.8258 29.3796ZM38.6258 17.0796L29.9258 27.4796L33.8258 33.1796L46.7258 28.9796C46.9258 28.8796 47.0258 28.7796 47.1258 28.5796C47.2258 28.3796 47.1258 28.1796 47.0258 28.0796L39.6258 17.1796C39.5258 16.9796 39.3258 16.8796 39.1258 16.8796C39.0258 16.8796 38.8258 16.8796 38.7258 16.9796L38.6258 17.0796Z" fill="#0064CC"/>
<path d="M32.426 38.2796C32.226 38.1796 31.926 37.7796 31.826 37.7796V37.6796C31.826 37.6796 31.926 37.5796 31.926 37.6796L32.326 37.8796C32.726 38.0796 33.226 37.8796 33.326 37.4796C33.426 37.0796 33.326 36.6796 32.926 36.5796L31.626 35.9796C31.026 35.6796 30.326 35.9796 30.026 36.5796V36.6796C29.826 37.2796 29.826 37.8796 30.026 38.3796L30.626 39.7796" fill="#469BE3"/>
<path d="M30.5254 39.5796L29.9254 38.1796C29.7254 37.5796 29.7254 36.9796 29.9254 36.3796V36.2796C30.0254 35.9796 30.3254 35.6796 30.6254 35.5796C30.9254 35.4796 31.3254 35.4796 31.6254 35.6796L32.9254 36.2796C33.3254 36.4796 33.5254 36.9796 33.3254 37.3796C33.2254 37.5796 33.0254 37.7796 32.8254 37.8796C32.6254 37.9796 32.3254 37.9796 32.1254 37.8796L31.9254 37.6796C32.0254 37.7796 32.2254 37.9796 32.4254 38.1796L32.2254 38.3796C32.2254 38.3796 31.7254 37.8796 31.6254 37.7796C31.5254 37.6796 31.5254 37.5796 31.6254 37.4796C31.7254 37.3796 31.8254 37.3796 31.9254 37.3796L32.3254 37.5796C32.5254 37.6796 32.6254 37.6796 32.8254 37.5796C33.0254 37.4796 33.1254 37.3796 33.1254 37.1796C33.2254 36.8796 33.1254 36.5796 32.8254 36.3796L31.6254 35.8796C31.3254 35.7796 31.1254 35.7796 30.8254 35.8796C30.5254 35.9796 30.3254 36.1796 30.2254 36.3796V36.4796C30.0254 36.9796 30.0254 37.5796 30.2254 38.0796L30.8254 39.4796L30.5254 39.5796Z" fill="#0064CC"/>
<path d="M34.8259 36.7796C34.6259 36.4796 34.6259 36.0796 34.9259 35.8796L36.6259 34.3796C36.9259 34.1796 37.3259 34.1796 37.5259 34.4796C37.7259 34.7796 37.7259 35.1796 37.4259 35.3796L35.6259 36.8796C35.4259 37.0796 35.0259 37.0796 34.8259 36.7796Z" fill="#469BE3"/>
<path d="M35.0261 37.0796C34.9261 37.0796 34.8261 36.9796 34.7261 36.8796C34.4261 36.5796 34.5261 36.0797 34.8261 35.7797L36.5261 34.2797C36.8261 33.9797 37.3261 34.0796 37.6261 34.3796C37.7261 34.5796 37.8261 34.6796 37.8261 34.8796C37.8261 35.0796 37.7261 35.2796 37.5261 35.3796L35.8261 36.8796C35.6261 36.9796 35.5261 37.0796 35.3261 37.0796C35.1261 37.0796 35.0261 37.0796 35.0261 37.0796ZM37.1261 34.4796C36.9261 34.3796 36.7261 34.4796 36.6261 34.5796L34.9261 35.9796C34.7261 36.1796 34.7261 36.4796 34.9261 36.6796C35.0261 36.7796 35.1261 36.8796 35.2261 36.8796C35.3261 36.8796 35.5261 36.8797 35.6261 36.7797L37.3261 35.2797C37.4261 35.1797 37.5261 35.0796 37.5261 34.9796C37.5261 34.8796 37.5261 34.6796 37.4261 34.5796C37.2261 34.4796 37.2261 34.4796 37.1261 34.4796Z" fill="#0064CC"/>
<path d="M35.6259 37.8796C35.3259 37.5796 35.4259 37.1796 35.6259 36.9796L37.0259 35.7796C37.2259 35.5796 37.6259 35.5796 37.8259 35.8796H37.9259C38.1259 36.0796 38.1259 36.4796 37.8259 36.6796L36.4259 37.8796C36.2259 38.0796 35.8259 38.0796 35.6259 37.8796Z" fill="#469BE3"/>
<path d="M35.8263 38.0796C35.7263 38.0796 35.6263 37.9796 35.5263 37.8796H35.4263C35.1263 37.5796 35.2263 37.1796 35.5263 36.8796L36.9263 35.6796C37.0263 35.5796 37.2263 35.4796 37.4263 35.4796C37.6263 35.4796 37.8263 35.5796 37.9263 35.6796L38.0263 35.7796C38.3263 36.0796 38.2263 36.4796 37.9263 36.7796L36.5263 37.9796C36.3263 38.1796 36.0263 38.1796 35.8263 38.0796ZM37.5263 35.7796C37.3263 35.6796 37.2263 35.7796 37.0263 35.8796L35.6263 37.0796C35.4263 37.2796 35.4263 37.5796 35.6263 37.6796L35.7263 37.7796C35.9263 37.9796 36.2263 37.9796 36.3263 37.7796L37.7263 36.5796C37.9263 36.3796 37.9263 36.0796 37.7263 35.9796V35.8796C37.7263 35.7796 37.6263 35.7796 37.5263 35.7796Z" fill="#0064CC"/>
<path d="M36.5261 38.7796C36.3261 38.5796 36.3261 38.1796 36.6261 37.9796L37.4261 37.2796C37.6261 37.0796 38.0261 37.0796 38.2261 37.3796C38.4261 37.5796 38.4261 37.9796 38.1261 38.1796L37.3261 38.8796C37.1261 38.9796 36.7261 38.9796 36.5261 38.7796Z" fill="#469BE3"/>
<path d="M36.7263 38.9796C36.6263 38.9796 36.5263 38.8796 36.4263 38.7796C36.1263 38.4796 36.2263 37.9796 36.5263 37.7796L37.3263 37.0796C37.4263 36.9796 37.6263 36.8796 37.8263 36.8796C38.0263 36.8796 38.2263 36.9796 38.3263 37.0796C38.4263 37.1796 38.5263 37.3796 38.5263 37.5796C38.5263 37.7796 38.4263 37.9796 38.3263 38.0796L37.4263 38.8796C37.3263 38.9796 37.1263 39.0796 36.9263 39.0796C36.8263 39.0796 36.8263 39.0796 36.7263 38.9796ZM37.9263 37.2796H37.8263C37.7263 37.2796 37.6263 37.2796 37.5263 37.3796L36.7263 38.0796C36.6263 38.1796 36.5263 38.2796 36.5263 38.3796C36.5263 38.4796 36.5263 38.5796 36.6263 38.6796C36.7263 38.7796 36.8263 38.8796 36.9263 38.8796C37.0263 38.8796 37.1263 38.8796 37.2263 38.7796L38.0263 38.0796C38.1263 37.9796 38.2263 37.8796 38.2263 37.7796C38.2263 37.6796 38.2263 37.5796 38.1263 37.4796C38.0263 37.2796 38.0263 37.2796 37.9263 37.2796Z" fill="#0064CC"/>
<path d="M34.9259 34.9796L34.8259 34.8796C34.6259 34.5796 34.6259 34.2796 34.9259 33.9796L35.7259 33.2796C36.0259 33.0796 36.3259 33.0796 36.6259 33.3796L36.7259 33.4796C36.9259 33.7796 36.9259 34.0796 36.6259 34.3796L35.8259 35.0796C35.5259 35.2796 35.1259 35.1796 34.9259 34.9796Z" fill="#469BE3"/>
<path d="M35.1261 35.2796C35.0261 35.2796 34.9261 35.1796 34.8261 35.0796L34.7261 34.8796C34.4261 34.5796 34.5261 34.0796 34.8261 33.8796L35.6261 33.1796C35.7261 33.0796 35.9261 32.9796 36.1261 32.9796C36.3261 32.9796 36.5261 33.0796 36.6261 33.1796L36.7261 33.2796C37.0261 33.5796 36.9261 34.0796 36.6261 34.2796L35.9261 35.0796C35.8261 35.1796 35.6261 35.2796 35.4261 35.2796C35.3261 35.2796 35.2261 35.2796 35.1261 35.2796ZM36.2261 33.2796H36.1261C36.0261 33.2796 35.8261 33.2796 35.7261 33.3796L34.9261 34.0796C34.7261 34.2796 34.7261 34.5796 34.9261 34.7796L35.0261 34.8796C35.1261 34.9796 35.2261 35.0796 35.3261 35.0796C35.4261 35.0796 35.6261 35.0796 35.7261 34.9796L36.5261 34.2796C36.7261 34.0796 36.7261 33.7796 36.5261 33.5796L36.4261 33.4796C36.3261 33.3796 36.3261 33.2796 36.2261 33.2796Z" fill="#0064CC"/>
<path d="M6.72611 37.0797L5.12611 29.9797C4.82611 28.7797 5.02611 27.6797 5.62611 26.6797C6.12611 25.7797 7.02611 24.9797 8.12611 24.2797L13.0261 21.3797C14.4261 20.5797 16.1261 20.5797 17.4261 21.3797C18.0261 21.7797 18.5261 22.1797 18.7261 22.7797C18.7261 22.7797 19.0261 23.5797 19.2261 24.6797C19.3261 25.2797 19.3261 25.8797 19.2261 26.2797C19.1261 26.8797 18.9261 27.3797 18.5261 27.7797V27.8797H18.4261C18.4261 27.8797 17.4261 27.3797 16.3261 27.1797C14.9261 26.8797 13.8261 27.1797 13.2261 27.8797C13.5261 28.0797 14.2261 28.7797 14.3261 29.8797C14.4261 30.8797 13.8261 31.9797 12.6261 33.0797L13.2261 35.5797L11.3261 35.9797V35.8797C11.3261 35.8797 11.2261 35.1797 11.0261 34.4797C10.6261 33.5797 10.1261 33.0797 9.42611 33.0797C9.42611 33.0797 9.02611 33.1797 8.82611 33.4797C8.52611 33.8797 8.22611 34.6797 8.62611 36.4797V36.5797L6.72611 37.0797ZM15.3261 21.0797C14.6261 21.0797 13.8261 21.2797 13.2261 21.6797L8.32611 24.5797C6.02611 25.8797 4.92611 27.7797 5.42611 29.8797L6.92611 36.7797L8.32611 36.4797C8.12611 35.6797 8.12611 35.0797 8.22611 34.4797C8.32611 33.9797 8.42611 33.6797 8.62611 33.3797C8.92611 32.8797 9.42611 32.8797 9.42611 32.8797C10.2261 32.8797 10.9261 33.4797 11.3261 34.4797C11.5261 35.0797 11.6261 35.5797 11.6261 35.7797L13.0261 35.4797L12.4261 33.0797L12.5261 32.9797C13.7261 31.9797 14.2261 30.8797 14.1261 29.9797C14.0261 28.7797 13.0261 28.0797 13.0261 28.0797L12.9261 27.9797L13.0261 27.8797C13.4261 27.3797 13.9261 27.0797 14.6261 26.8797C15.1261 26.7797 15.8261 26.7797 16.5261 26.8797C17.5261 27.0797 18.3261 27.3797 18.6261 27.4797C19.3261 26.6797 19.3261 25.4797 19.2261 24.5797C19.1261 23.5797 18.8261 22.7797 18.7261 22.7797C18.5261 22.2797 18.1261 21.7797 17.5261 21.4797C16.7261 21.2797 16.0261 21.0797 15.3261 21.0797Z" fill="#0064CC"/>
<g opacity="0.75">
<path d="M80.1254 47.7796C80.5254 47.8796 80.7254 48.2796 80.6254 48.6796C80.5254 49.0796 80.1254 49.2796 79.7254 49.1796C79.3254 49.0796 79.1254 48.6796 79.2254 48.2796C79.4254 47.8796 79.8254 47.6796 80.1254 47.7796Z" fill="#2488FD"/>
<path d="M83.0255 37.2796C83.4255 37.3796 83.6255 37.7796 83.5255 38.1796C83.4255 38.5796 83.0255 38.7796 82.6255 38.6796C82.2255 38.5796 82.0255 38.1796 82.1255 37.7796C82.2255 37.3796 82.6255 37.1796 83.0255 37.2796Z" fill="#2488FD"/>
<path d="M85.8254 26.7796C86.2254 26.8796 86.4254 27.2796 86.3254 27.6796C86.2254 28.0796 85.8254 28.2796 85.4254 28.1796C85.0254 28.0796 84.8254 27.6796 84.9254 27.2796C85.1254 26.8796 85.4254 26.6796 85.8254 26.7796Z" fill="#2488FD"/>
<path d="M88.2254 17.5797C88.6254 17.6797 89.0254 17.4797 89.1254 17.0797C89.2254 16.6797 89.0254 16.2797 88.6254 16.1797C88.2254 16.0797 87.8254 16.2797 87.7254 16.6797C87.6254 17.0797 87.9254 17.4797 88.2254 17.5797Z" fill="#2488FD"/>
<path d="M91.4255 5.67966C91.8255 5.77966 92.0255 6.17966 91.9255 6.57966C91.8255 6.97966 91.4255 7.17966 91.0255 7.07966C90.6255 6.97966 90.4255 6.57966 90.5255 6.17966C90.7255 5.77966 91.0255 5.57966 91.4255 5.67966Z" fill="#2488FD"/>
<path d="M89.6254 50.2796C90.0254 50.3796 90.2254 50.7796 90.1254 51.1796C90.0254 51.5796 89.6254 51.7796 89.2254 51.6796C88.8254 51.5796 88.6254 51.1796 88.7254 50.7796C88.8254 50.3796 89.2254 50.1796 89.6254 50.2796Z" fill="#2488FD"/>
<path d="M92.4255 39.7796C92.8255 39.8796 93.0255 40.2796 92.9255 40.6796C92.8255 41.0796 92.4255 41.2796 92.0255 41.1796C91.6255 41.0796 91.4255 40.6796 91.5255 40.2796C91.6255 39.8796 92.0255 39.6796 92.4255 39.7796Z" fill="#2488FD"/>
<path d="M95.2254 29.2796C95.6254 29.3796 95.8254 29.7796 95.7254 30.1796C95.6254 30.5796 95.2254 30.7796 94.8254 30.6796C94.4254 30.5796 94.2254 30.1796 94.3254 29.7796C94.4254 29.3796 94.8254 29.1796 95.2254 29.2796Z" fill="#2488FD"/>
<path d="M97.7254 20.0797C98.1254 20.1797 98.5254 19.9797 98.6254 19.5797C98.7254 19.1797 98.5254 18.7797 98.1254 18.6797C97.7254 18.5797 97.3254 18.7797 97.2254 19.1797C97.1254 19.5797 97.3254 19.9797 97.7254 20.0797Z" fill="#2488FD"/>
<path d="M100.525 9.57966C100.925 9.67966 101.325 9.47966 101.425 9.07966C101.525 8.67966 101.325 8.27966 100.925 8.17966C100.525 8.07966 100.125 8.27966 100.025 8.67966C99.9255 9.07966 100.125 9.47966 100.525 9.57966Z" fill="#2488FD"/>
<path d="M98.6255 54.1796C99.0255 54.2796 99.4255 54.0796 99.5255 53.6796C99.6255 53.2796 99.4255 52.8796 99.0255 52.7796C98.6255 52.6796 98.2255 52.8796 98.1255 53.2796C98.0255 53.6796 98.2255 54.0796 98.6255 54.1796Z" fill="#2488FD"/>
<path d="M101.425 43.6796C101.825 43.7796 102.225 43.5796 102.325 43.1796C102.425 42.7796 102.225 42.3796 101.825 42.2796C101.425 42.1796 101.025 42.3796 100.925 42.7796C100.825 43.1796 101.125 43.5796 101.425 43.6796Z" fill="#2488FD"/>
<path d="M104.625 31.7796C105.025 31.8796 105.225 32.2796 105.125 32.6796C105.025 33.0796 104.625 33.2796 104.225 33.1796C103.825 33.0796 103.625 32.6796 103.725 32.2796C103.925 31.8796 104.225 31.6796 104.625 31.7796Z" fill="#2488FD"/>
<path d="M107.425 21.2796C107.825 21.3796 108.025 21.7796 107.925 22.1796C107.825 22.5796 107.425 22.7796 107.025 22.6796C106.625 22.5796 106.425 22.1796 106.525 21.7796C106.725 21.3796 107.125 21.1796 107.425 21.2796Z" fill="#2488FD"/>
<path d="M110.325 10.6797C110.725 10.7797 110.925 11.1797 110.825 11.5797C110.725 11.9797 110.325 12.1797 109.925 12.0797C109.525 11.9797 109.325 11.5797 109.425 11.1797C109.525 10.7797 109.925 10.5797 110.325 10.6797Z" fill="#2488FD"/>
<path d="M108.425 55.3796C108.825 55.4796 109.025 55.8796 108.925 56.2796C108.825 56.6796 108.425 56.8796 108.025 56.7796C107.625 56.6796 107.425 56.2796 107.525 55.8796C107.625 55.4796 108.025 55.2796 108.425 55.3796Z" fill="#2488FD"/>
<path d="M111.225 44.7796C111.625 44.8796 111.825 45.2796 111.725 45.6796C111.625 46.0796 111.225 46.2796 110.825 46.1796C110.425 46.0796 110.225 45.6796 110.325 45.2796C110.525 44.9796 110.825 44.6796 111.225 44.7796Z" fill="#2488FD"/>
<path d="M114.025 34.2796C114.425 34.3796 114.625 34.7796 114.525 35.1796C114.425 35.5796 114.025 35.7796 113.625 35.6796C113.225 35.5796 113.025 35.1796 113.125 34.7796C113.325 34.3796 113.725 34.1796 114.025 34.2796Z" fill="#2488FD"/>
<path d="M116.525 25.1796C116.925 25.2796 117.325 25.0796 117.425 24.6796C117.525 24.2796 117.325 23.8796 116.925 23.7796C116.525 23.6796 116.125 23.8796 116.025 24.2796C115.925 24.6796 116.125 25.0796 116.525 25.1796Z" fill="#2488FD"/>
<path d="M119.725 13.2796C120.125 13.3796 120.325 13.7796 120.225 14.1796C120.125 14.5796 119.725 14.7796 119.325 14.6796C118.925 14.5796 118.725 14.1796 118.825 13.7796C118.925 13.3796 119.325 13.1796 119.725 13.2796Z" fill="#2488FD"/>
<path d="M117.825 57.8796C118.225 57.9796 118.425 58.3796 118.325 58.7796C118.225 59.1796 117.825 59.3796 117.425 59.2796C117.025 59.1796 116.825 58.7796 116.925 58.3796C117.125 57.9796 117.425 57.7796 117.825 57.8796Z" fill="#2488FD"/>
<path d="M120.625 47.3796C121.025 47.4796 121.225 47.8796 121.125 48.2796C121.025 48.6796 120.625 48.8796 120.225 48.7796C119.825 48.6796 119.625 48.2796 119.725 47.8796C119.925 47.4796 120.225 47.2796 120.625 47.3796Z" fill="#2488FD"/>
<path d="M123.425 36.7796C123.825 36.8796 124.025 37.2796 123.925 37.6796C123.825 38.0796 123.425 38.2796 123.025 38.1796C122.625 38.0796 122.425 37.6796 122.525 37.2796C122.725 36.8796 123.025 36.6796 123.425 36.7796Z" fill="#2488FD"/>
<path d="M125.925 27.6796C126.325 27.7796 126.725 27.5796 126.825 27.1796C126.925 26.7796 126.725 26.3796 126.325 26.2796C125.925 26.1796 125.525 26.3796 125.425 26.7796C125.325 27.1796 125.525 27.5796 125.925 27.6796Z" fill="#2488FD"/>
<path d="M128.725 17.0797C129.125 17.1797 129.525 16.9797 129.625 16.5797C129.725 16.1797 129.525 15.7797 129.125 15.6797C128.725 15.5797 128.325 15.7797 128.225 16.1797C128.125 16.5797 128.325 16.9797 128.725 17.0797Z" fill="#2488FD"/>
<path d="M129.725 51.2796C130.125 51.3796 130.525 51.1796 130.625 50.7796C130.725 50.3796 130.525 49.9796 130.125 49.8796C129.725 49.7796 129.325 49.9796 129.225 50.3796C129.125 50.7796 129.325 51.1796 129.725 51.2796Z" fill="#2488FD"/>
<path d="M132.825 39.3796C133.225 39.4796 133.425 39.8796 133.325 40.2796C133.225 40.6796 132.825 40.8796 132.425 40.7796C132.025 40.6796 131.825 40.2796 131.925 39.8796C132.125 39.4796 132.525 39.2796 132.825 39.3796Z" fill="#2488FD"/>
<path d="M135.725 28.7796C136.125 28.8796 136.325 29.2796 136.225 29.6796C136.125 30.0796 135.725 30.2796 135.325 30.1796C134.925 30.0796 134.725 29.6796 134.825 29.2796C134.925 28.8796 135.325 28.6796 135.725 28.7796Z" fill="#2488FD"/>
<path d="M138.525 18.2796C138.925 18.3796 139.125 18.7796 139.025 19.1796C138.925 19.5796 138.525 19.7796 138.125 19.6796C137.725 19.5796 137.525 19.1796 137.625 18.7796C137.725 18.3796 138.125 18.1796 138.525 18.2796Z" fill="#2488FD"/>
<path d="M162.125 19.0796C161.925 19.0796 161.925 18.8796 161.925 18.6796L169.425 -4.92036C169.425 -5.12036 169.625 -5.12036 169.825 -5.12036C170.025 -5.12036 170.025 -4.92036 170.025 -4.72036L162.525 18.8796C162.425 18.9796 162.225 19.0796 162.125 19.0796Z" fill="white"/>
<path d="M153.725 27.3796C153.525 27.3796 153.525 27.1796 153.525 26.9796L161.025 3.07964C161.025 2.87964 161.225 2.87964 161.425 2.87964C161.625 2.87964 161.625 3.07964 161.625 3.27964L154.125 27.1796C154.025 27.2796 153.825 27.3796 153.725 27.3796Z" fill="#2488FD"/>
<path d="M166.725 31.3796C166.525 31.3796 166.525 31.1796 166.525 30.9796L174.025 7.07964C174.025 6.87964 174.225 6.87964 174.425 6.87964C174.625 6.87964 174.625 7.07964 174.625 7.27964L167.125 31.1796C167.025 31.3796 166.825 31.4796 166.725 31.3796Z" fill="#2488FD"/>
<path d="M145.225 29.7796C145.025 29.7796 145.025 29.5796 145.025 29.3796L148.925 16.8796C148.925 16.6796 149.125 16.6796 149.325 16.6796C149.525 16.6796 149.525 16.8796 149.525 17.0796L145.625 29.5796C145.525 29.7796 145.425 29.8796 145.225 29.7796Z" fill="white"/>
<path d="M167.525 39.9796C167.325 39.9796 167.325 39.7796 167.325 39.5796L169.425 33.0796C169.425 32.8796 169.625 32.8796 169.825 32.8796C170.025 32.8796 170.025 33.0796 170.025 33.2796L167.925 39.7796C167.825 39.8796 167.725 39.9796 167.525 39.9796Z" fill="#2488FD"/>
<path d="M148.325 13.5797C148.125 13.5797 148.125 13.3797 148.125 13.1796L153.325 -3.22035C153.325 -3.42035 153.525 -3.42035 153.725 -3.42035C153.925 -3.42035 153.925 -3.22035 153.925 -3.02035L148.725 13.3797C148.625 13.4797 148.425 13.5797 148.325 13.5797Z" fill="#2488FD"/>
<path d="M175.925 26.5796C175.725 26.5796 175.725 26.3796 175.725 26.1796L177.025 22.1796C177.025 21.9796 177.225 21.9796 177.425 21.9796C177.625 21.9796 177.625 22.1796 177.625 22.3796L176.325 26.3796C176.225 26.5796 176.025 26.6796 175.925 26.5796Z" fill="white"/>
<path d="M139.925 10.8797C139.725 10.8797 139.725 10.6797 139.725 10.4797L140.625 7.77965C140.625 7.57965 140.825 7.57965 141.025 7.57965C141.225 7.57965 141.225 7.77965 141.225 7.97965L140.325 10.6797C140.225 10.7797 140.125 10.8797 139.925 10.8797Z" fill="white"/>
<path d="M152.725 62.8797C156.025 63.7797 159.325 61.7797 160.225 58.5797C161.125 55.2797 159.125 51.9797 155.925 51.0797C152.625 50.1797 149.325 52.1797 148.425 55.3797C147.525 58.5797 149.425 61.9797 152.725 62.8797Z" fill="#2488FD"/>
<path d="M153.425 60.1796C151.825 59.7796 150.425 58.6796 149.525 57.1796C148.625 55.6796 148.425 53.9796 148.925 52.2796C149.325 50.5796 150.425 49.2796 151.925 48.3796C155.025 46.5796 158.925 47.6796 160.725 50.7796C161.625 52.2796 161.825 53.9796 161.325 55.6796C160.925 57.3796 159.825 58.6796 158.325 59.5796C156.825 60.4796 155.025 60.5796 153.425 60.1796ZM156.625 48.3796C155.225 47.9796 153.625 48.1796 152.225 48.9796C150.925 49.7796 149.925 50.9796 149.525 52.4796C149.125 53.9796 149.325 55.4796 150.125 56.8796C151.725 59.5796 155.225 60.5796 157.925 58.9796C159.225 58.1796 160.225 56.9796 160.625 55.4796C161.025 53.9796 160.825 52.4796 160.025 51.0796C159.325 49.6796 158.025 48.7796 156.625 48.3796Z" fill="white"/>
<path d="M101.825 25.0797C101.425 24.4797 101.325 23.7797 101.525 23.0797C101.925 21.6797 103.425 20.7797 104.825 21.1797C106.825 21.6797 108.825 20.5797 109.325 18.5797C109.825 16.5797 108.725 14.6797 106.725 14.1797C105.325 13.7797 104.425 12.2797 104.825 10.8797C105.225 9.47967 106.725 8.57967 108.125 8.97967C112.925 10.2797 115.725 15.1797 114.425 19.9797C113.125 24.7797 108.225 27.5797 103.425 26.3797C102.825 26.0797 102.225 25.6797 101.825 25.0797Z" fill="white"/>
<path d="M186.825 42.8797C185.925 41.3797 186.525 39.4797 187.925 38.5797C189.425 37.6797 191.325 38.2797 192.225 39.6797C193.125 41.1797 192.525 43.0797 191.125 43.9797C189.625 44.8797 187.725 44.3797 186.825 42.8797ZM190.525 40.7797C190.225 40.2797 189.525 40.0797 189.025 40.3797C188.525 40.6797 188.325 41.3797 188.625 41.8797C188.925 42.3797 189.625 42.5797 190.125 42.2797C190.625 41.9797 190.825 41.2797 190.525 40.7797Z" fill="white"/>
<path d="M72.6254 28.5796C71.7254 27.0796 72.3254 25.1796 73.7254 24.2796C75.2254 23.3796 77.1254 23.9796 78.0254 25.3796C78.9254 26.8796 78.3254 28.7796 76.9254 29.6796C75.3254 30.6796 73.4254 30.0796 72.6254 28.5796ZM76.3254 26.4796C76.0254 25.9796 75.3254 25.7796 74.8254 26.0796C74.2254 26.3796 74.1254 27.0796 74.4254 27.5796C74.7254 28.1796 75.4254 28.2796 75.9254 27.9796C76.4254 27.6796 76.6254 27.0796 76.3254 26.4796Z" fill="#2488FD"/>
</g>
</g>
<defs>
<clipPath id="clip0_2553_12476">
<rect width="206" height="60" fill="white"/>
</clipPath>
</defs>
</svg>
