<?xml version="1.0" encoding="utf-8"?>
<!-- Generator: Adobe Illustrator 24.2.3, SVG Export Plug-In . SVG Version: 6.00 Build 0)  -->
<svg version="1.1"
	 id="Layer_1" inkscape:version="0.91 r13725" sodipodi:docname="Visa_2006.svg" xmlns:cc="http://creativecommons.org/ns#" xmlns:dc="http://purl.org/dc/elements/1.1/" xmlns:inkscape="http://www.inkscape.org/namespaces/inkscape" xmlns:rdf="http://www.w3.org/1999/02/22-rdf-syntax-ns#" xmlns:sodipodi="http://sodipodi.sourceforge.net/DTD/sodipodi-0.dtd" xmlns:svg="http://www.w3.org/2000/svg"
	 xmlns="http://www.w3.org/2000/svg" xmlns:xlink="http://www.w3.org/1999/xlink" x="0px" y="0px" viewBox="0 0 1000 390"
	 style="enable-background:new 0 0 1000 390;" xml:space="preserve">
<style type="text/css">
	.st0{fill:url(#SVGID_1_);}
	.st1{fill:url(#SVGID_2_);}
	.st2{fill:#FFFFFF;stroke:#1A171B;stroke-width:0.5145;stroke-linecap:round;}
	.st3{fill:#FFFFFF;enable-background:new    ;}
	.st4{fill:url(#SVGID_3_);}
	.st5{fill:url(#SVGID_4_);}
	.st6{fill:url(#SVGID_5_);}
	.st7{fill:#871626;}
	.st8{fill:url(#SVGID_6_);}
	.st9{fill:#FFFFFF;}
	.st10{fill:#1A171B;}
</style>
<g>
	<linearGradient id="SVGID_1_" gradientUnits="userSpaceOnUse" x1="84.607" y1="297.2021" x2="264.6989" y2="-38.0254">
		<stop  offset="0" style="stop-color:#636466"/>
		<stop  offset="3.675586e-02" style="stop-color:#68696B"/>
		<stop  offset="0.2712" style="stop-color:#838486"/>
		<stop  offset="0.509" style="stop-color:#97989A"/>
		<stop  offset="0.7502" style="stop-color:#A2A3A5"/>
		<stop  offset="1" style="stop-color:#A6A7A9"/>
	</linearGradient>
	<path class="st0" d="M183.2,369.7c0,0-188.4-64-166.8-325.6c0,0,82.9-23.8,166.8-23.8c83.9,0,165,23.1,167.4,23.8
		C372.4,305.5,183.2,369.7,183.2,369.7z"/>
	<linearGradient id="SVGID_2_" gradientUnits="userSpaceOnUse" x1="253.8286" y1="201.0922" x2="21.2266" y2="47.1982">
		<stop  offset="0" style="stop-color:#C5C6C8"/>
		<stop  offset="9.484351e-02" style="stop-color:#DCDDDE"/>
		<stop  offset="0.2048" style="stop-color:#F0F0F0"/>
		<stop  offset="0.3167" style="stop-color:#FBFBFB"/>
		<stop  offset="0.4326" style="stop-color:#FFFFFF"/>
		<stop  offset="0.5362" style="stop-color:#F6F7F7"/>
		<stop  offset="0.7022" style="stop-color:#DFDFE0"/>
		<stop  offset="0.9089" style="stop-color:#B9BABB"/>
		<stop  offset="1" style="stop-color:#A6A7A9"/>
	</linearGradient>
	<path class="st1" d="M183.2,369.7c0,0-188.4-64-166.8-325.6c0,0,82.9-23.8,166.8-23.8c83.9,0,165,23.1,167.4,23.8l-17.2,15.4
		L183.3,353.2L183.2,369.7z"/>
	<path class="st2" d="M183.3,353.2c0,0-170.6-57.9-151.1-294.7c0,0,75.1-21.6,151.1-21.6c76,0,149.4,20.9,151.5,21.6
		C354.6,295,183.3,353.2,183.3,353.2z"/>
	<g>
		<path class="st3" d="M183.3,353.2c0,0-170.6-57.9-151.1-294.7c0,0,75.1-21.6,151.1-21.6c76,0,149.4,20.9,151.5,21.6
			C354.6,295,183.3,353.2,183.3,353.2z"/>
	</g>
	<linearGradient id="SVGID_3_" gradientUnits="userSpaceOnUse" x1="312.605" y1="244.6509" x2="67.2889" y2="78.7011">
		<stop  offset="0" style="stop-color:#4B4B4D"/>
		<stop  offset="0.2321" style="stop-color:#646466"/>
		<stop  offset="0.482" style="stop-color:#77787A"/>
		<stop  offset="0.7365" style="stop-color:#828385"/>
		<stop  offset="1" style="stop-color:#868789"/>
	</linearGradient>
	<path class="st4" d="M31.5,56.1l-1.6,0.5l-0.1,1.7c-10.2,123.2,31.8,197.4,68.8,238c40.2,44,83.4,59.1,83.9,59.2l0.8,0.3l0.8-0.3
		c0.4-0.2,43.9-15.2,84.2-59.3c37.1-40.6,79.3-114.8,69-237.9l-0.1-1.6l-1.5-0.5c-0.7-0.2-75.3-21.7-152.3-21.7
		C107.8,34.4,32.3,55.9,31.5,56.1z M185.4,37.9c70.5,0,137.2,18.4,147.8,21.3c1,12,1.4,26.2,1.4,37.3c0,99.7-37.2,163-69.8,198.7
		c-36.6,40.1-75.8,55.7-81.6,57.9c-5.8-2.1-45.8-17.7-82.3-57.8C68.4,259.6,32,197.2,32,97.3c0-11,1.6-25.1,2.5-37
		C45.5,57.3,116.5,37.9,185.4,37.9z"/>
	<linearGradient id="SVGID_4_" gradientUnits="userSpaceOnUse" x1="74.666" y1="233.2596" x2="284.4382" y2="83.5189">
		<stop  offset="0" style="stop-color:#871626"/>
		<stop  offset="0.6067" style="stop-color:#CD1F3D"/>
		<stop  offset="0.7079" style="stop-color:#CA0233"/>
		<stop  offset="1" style="stop-color:#861D45"/>
	</linearGradient>
	<path class="st5" d="M183.3,323.8c0,0-143-52.4-126.6-250.9c0,0,62.9,5.1,126.6,5.1c63.7,0,125.3-4.9,127.1-5.1
		C326.9,271.2,183.3,323.8,183.3,323.8z"/>
	<radialGradient id="SVGID_5_" cx="149.2863" cy="124.7845" r="222.9687" gradientUnits="userSpaceOnUse">
		<stop  offset="0" style="stop-color:#CD1F3D"/>
		<stop  offset="0.4607" style="stop-color:#CA0233"/>
		<stop  offset="1" style="stop-color:#861D45"/>
	</radialGradient>
	<path class="st6" d="M183.3,306.7c0,0-123.5-45.2-109.4-216.7c0,0,54.3,4.4,109.4,4.4c55,0,108.2-4.2,109.7-4.4
		C307.4,261.3,183.3,306.7,183.3,306.7z"/>
	<path class="st7" d="M310.3,72.9c-1.8,0.2-63.3,5.1-127.1,5.1c-63.7,0-126.6-5.1-126.6-5.1L74,90c0,0,54.3,4.4,109.4,4.4
		c55,0,108.2-4.2,109.7-4.4L310.3,72.9z"/>
	<linearGradient id="SVGID_6_" gradientUnits="userSpaceOnUse" x1="14.0378" y1="89.2634" x2="199.5241" y2="303.2052">
		<stop  offset="0" style="stop-color:#871626"/>
		<stop  offset="0.6067" style="stop-color:#CD1F3D"/>
		<stop  offset="0.7079" style="stop-color:#CA0233"/>
		<stop  offset="1" style="stop-color:#861D45"/>
	</linearGradient>
	<path class="st8" d="M183.3,323.8c0,0-143-52.4-126.6-250.9L74,90C59.8,261.4,183.3,306.7,183.3,306.7L183.3,323.8z"/>
	<polygon class="st9" points="106.8,238 127.2,105 161.1,105 202.7,238 167.1,238 149,169 138.8,238 	"/>
	<polygon class="st9" points="208,105 241.5,105 261.3,238 229,238 217.5,169 205.9,223.1 188.2,169 	"/>
	<g>
		<path class="st10" d="M474.5,169.3l-26.4-0.1l-25.2-64.1h-0.3l-9.2,64.1h-28.4l18.7-119.3h28.1L474.5,169.3z M456.1,108.1
			l21.6-58.2h28.4l16.6,119.3h-28.6l-8-64.1h-0.3l-16.5,38.4L456.1,108.1z"/>
		<path class="st10" d="M631.4,148.5l-7.2,20.7h-28.8l40.2-119.3h29.7l39.4,119.3h-29l-6.8-20.7H631.4z M650.4,86.8h-0.3l-11.2,38
			h22.6L650.4,86.8z"/>
		<path class="st10" d="M849.4,133.5h-55.9c0,11.7,5.7,18,16.6,18c5.7,0,9.8-2.1,12.7-7.4h25.5c-2,9.5-7.3,16.5-14.1,21
			c-6.9,4.6-15.3,6.8-23.9,6.8c-24.8,0-43.3-15.2-43.3-43.2c0-27.1,17.1-43.4,41.4-43.4c26,0,41,17.4,41,45.1V133.5z M824.8,116.8
			c-1.3-7.8-7.9-12.8-15-12.8c-7.7,0-14.1,4.4-15.7,12.8H824.8z"/>
		<path class="st10" d="M940.9,133.5h-55.8c0,11.7,5.7,18,16.6,18c5.7,0,9.8-2.1,12.7-7.4h25.5c-2,9.5-7.3,16.5-14.1,21
			c-6.9,4.6-15.3,6.8-23.9,6.8c-24.8,0-43.3-15.2-43.3-43.2c0-27.1,17.1-43.4,41.4-43.4c26,0,41,17.4,41,45.1V133.5z M916.3,116.8
			c-1.3-7.8-7.9-12.8-15-12.8c-7.7,0-14.1,4.4-15.7,12.8H916.3z"/>
		<path class="st10" d="M944.6,72.2c0-11.3,9-20.3,20.4-20.3c11.4,0,20.4,9,20.4,20.3s-9,20.3-20.4,20.3
			C953.6,92.5,944.6,83.5,944.6,72.2z M947.9,72.2c0,9.6,7.8,17,17.1,17c9.3,0,17.1-7.4,17.1-17c0-9.6-7.7-17-17.1-17
			C955.7,55.1,947.9,62.5,947.9,72.2z M974.3,83.7h-3.8l-5.8-10.5h-4.2v10.5h-3.3V60.9h9.6c4.1,0,7.9,1.2,7.9,6.1
			c0,4.5-3,6.1-6.1,6.3L974.3,83.7z M960.4,64.2v5.7h3.5c3.1,0,7.3,0.5,7.3-2.6c0-2.9-2.4-3.1-5.2-3.1H960.4z"/>
	</g>
	<g>
		<path class="st10" d="M714.8,107.6h-15.5V88.1h15.9v-9.3c0-24,10.6-32.4,31.7-32.4c5.7,0,10.1,0.9,13.4,1.5l-1.6,19.2
			c-2.2-0.8-4.4-1.2-8.3-1.2c-6.7,0-9.3,5-9.3,12.9v9.3h18.7v19.5h-18.7v61.3h-26.3V107.6z"/>
	</g>
	<g>
		<path class="st10" d="M444.7,226.1c-8.5-3.2-13.1-4.7-21.7-4.7c-9.3,0-20.2,3.2-20.2,14.9c0,21.5,49.7,16.6,49.7,53.5
			c0,23.9-19.1,33.4-42.3,33.4c-8.1,0-16.1-2.2-23.7-4.7l1.7-14.9c5.6,2.2,15.6,5.5,24,5.5c9.4,0,22.7-5.1,22.7-18.3
			c0-25.1-49.7-18.2-49.7-53c0-19.9,16.2-30.5,37.1-30.5c7.6,0,16.7,1.3,24.7,4L444.7,226.1z"/>
		<path class="st10" d="M475.9,209.2h64.8v14.1h-48.2v32.8h43.9v14.1h-43.9v37h48.2v14.1h-64.8V209.2z"/>
		<path class="st10" d="M640.4,227.7c-7.3-4.2-15.4-6.3-23.9-6.3c-26.7,0-44.4,18.6-44.4,43.9c0,26.3,19.6,43.9,43.6,43.9
			c8.3,0,19.4-2.1,25.2-5.5l1,15.6c-8.8,3.5-19.6,4-26.4,4c-36.6,0-61-22.8-61-58.5c0-34.6,25.9-57.5,61.2-57.5
			c8.9,0,17.7,1.3,26,4.8L640.4,227.7z"/>
		<path class="st10" d="M745.1,274.9c0,31.5-16.4,48.4-44.9,48.4c-28.5,0-44.9-16.9-44.9-48.4v-65.7h16.6v63.6
			c0,21.5,7,36.3,28.3,36.3s28.3-14.8,28.3-36.3v-63.6h16.6V274.9z"/>
		<path class="st10" d="M771.5,209.2h28.3c22.9,0,44.9,3.5,44.9,30.4c0,13.7-10.4,23.3-23.9,25.5v0.3c5.1,1.9,7.6,4.3,11.3,11.3
			l21.9,44.7h-18.9l-17.7-38.9c-5.1-10.9-10.6-10.9-19.4-10.9h-9.9v49.8h-16.6V209.2z M788.1,257.4h14.1c15.7,0,25-6.7,25-17.5
			c0-10.1-8-16.6-23.2-16.6h-15.9V257.4z"/>
		<path class="st10" d="M872.7,209.2h64.8v14.1h-48.2v32.8h43.9v14.1h-43.9v37h48.2v14.1h-64.8V209.2z"/>
	</g>
	<path class="st10" d="M588.7,113.6c-4.8-3.1-9.6-4.5-15.9-4.5c-11.4,0-20.1,8.4-20.1,22.3c0,12.9,10.2,21.3,21.6,21.3
		c6,0,12-1.4,16.3-3.9l0.6,20.8c-6.6,2.3-14.4,3.6-21.4,3.6c-25.1,0-44.2-15.5-44.2-42.2c0-26.8,19.1-42.3,44.2-42.3
		c7.9,0,14.9,1.4,20.9,4.5L588.7,113.6z"/>
</g>
</svg>
