<svg width="25" height="24" viewBox="0 0 25 24" fill="none" xmlns="http://www.w3.org/2000/svg">
<rect x="3.14258" y="3.42871" width="18" height="17.6327" rx="3" fill="#212121" fill-opacity="0.7"/>
<path d="M9.89258 9.55076C9.89258 10.7659 10.9021 11.7548 12.1426 11.7548C13.3831 11.7548 14.3926 10.7659 14.3926 9.55076C14.3926 8.33558 13.3831 7.34668 12.1426 7.34668C10.9021 7.34668 9.89258 8.33558 9.89258 9.55076ZM16.1426 16.6528H16.1528C16.4233 16.6528 16.6426 16.4335 16.6426 16.163C16.6426 14.2729 15.0721 12.7344 13.1426 12.7344H11.1426C9.21258 12.7344 7.64258 14.2729 7.64258 16.163C7.64258 16.4335 7.86187 16.6528 8.13237 16.6528H16.1426Z" fill="white"/>
<rect x="0.142578" y="11.2651" width="6" height="1.95918" rx="0.979592" fill="white"/>
<rect x="0.642578" y="11.7549" width="5" height="0.979592" rx="0.489796" fill="#212121" fill-opacity="0.7"/>
<rect x="18.1426" y="11.2651" width="6" height="1.95918" rx="0.979592" fill="white"/>
<rect x="18.6426" y="11.7549" width="5" height="0.979592" rx="0.489796" fill="#212121" fill-opacity="0.7"/>
<rect x="11.1426" y="5.87744" width="5.87755" height="2" rx="1" transform="rotate(-90 11.1426 5.87744)" fill="white"/>
<rect x="11.6426" y="5.3877" width="4.89796" height="1" rx="0.5" transform="rotate(-90 11.6426 5.3877)" fill="#212121" fill-opacity="0.7"/>
<rect x="11.1426" y="24" width="5.87755" height="2" rx="1" transform="rotate(-90 11.1426 24)" fill="white"/>
<rect x="11.6426" y="23.5103" width="4.89796" height="1" rx="0.5" transform="rotate(-90 11.6426 23.5103)" fill="#212121" fill-opacity="0.7"/>
</svg>
