<?xml version="1.0" encoding="utf-8"?>
<!-- Generator: Adobe Illustrator 24.2.3, SVG Export Plug-In . SVG Version: 6.00 Build 0)  -->
<svg version="1.1"
	 id="Layer_1" inkscape:version="0.91 r13725" sodipodi:docname="Visa_2006.svg" xmlns:cc="http://creativecommons.org/ns#" xmlns:dc="http://purl.org/dc/elements/1.1/" xmlns:inkscape="http://www.inkscape.org/namespaces/inkscape" xmlns:rdf="http://www.w3.org/1999/02/22-rdf-syntax-ns#" xmlns:sodipodi="http://sodipodi.sourceforge.net/DTD/sodipodi-0.dtd" xmlns:svg="http://www.w3.org/2000/svg"
	 xmlns="http://www.w3.org/2000/svg" xmlns:xlink="http://www.w3.org/1999/xlink" x="0px" y="0px" width="120px" height="50px"
	 viewBox="0 0 120 50" style="enable-background:new 0 0 120 50;" xml:space="preserve">
<style type="text/css">
	.st0{fill:#79C401;}
	.st1{fill:#FFFFFF;}
	.st2{fill:#555555;}
	.st3{fill:url(#SVGID_1_);}
	.st4{fill:url(#SVGID_2_);}
	.st5{fill:#70BA00;}
	.st6{fill:#89DE00;}
	.st7{fill:#7ED101;}
	.st8{fill:#62A300;}
	.st9{opacity:0.15;}
</style>
<g>
	<g>
		<path class="st0" d="M103.147,9.23H40.042c4.108,3.996,6.673,9.584,6.673,15.764c0,7.241-3.515,13.642-8.906,17.651h65.338
			c9.226,0,16.714-7.487,16.714-16.714S112.374,9.23,103.147,9.23z"/>
		<path class="st1" d="M102.518,21.466H46.395c0.185,1.159,0.308,2.331,0.308,3.528c0,5.81-2.27,11.077-5.945,15.012h61.773
			c5.119,0,9.276-4.157,9.276-9.276S107.65,21.466,102.518,21.466z"/>
		<g>
			<path class="st2" d="M56.139,28.485c0.012-1.024-0.086-2.048-1.258-2.048c-0.715,0-1.184,0.284-1.184,1.073
				c0,0.876,0.543,1.209,1.221,1.628c0.703,0.444,1.998,1.307,2.603,1.875c0.74,0.715,0.962,1.419,0.962,2.405
				c0,2.183-1.443,3.306-3.54,3.306c-2.578,0-3.503-1.443-3.503-3.503v-0.839h2.146v0.678c-0.037,1.11,0.284,1.937,1.345,1.937
				c0.9,0,1.332-0.481,1.332-1.345c0-0.678-0.308-1.135-0.863-1.505c-1.11-0.876-2.516-1.493-3.392-2.652
				c-0.358-0.518-0.543-1.147-0.543-1.752c0-1.961,1.098-3.034,3.38-3.034c3.417,0,3.318,2.64,3.33,3.774H56.139L56.139,28.485z"/>
			<path class="st2" d="M60.21,36.478V24.994h6.032v1.69h-3.898v2.899h3.577v1.69h-3.577v3.54h3.898v1.69H60.21L60.21,36.478
				L60.21,36.478z"/>
			<path class="st2" d="M74.715,32.395c-0.012,0.222-0.025,0.444-0.037,0.654c-0.111,2.097-0.814,3.7-3.195,3.7
				c-3.528,0-3.762-2.233-3.762-5.292v-1.628c0.099-2.923,0.321-5.107,3.762-5.107c1.924,0.025,2.985,1.011,3.145,2.973
				c0.025,0.284,0.074,0.58,0.037,0.876h-2.109c-0.099-0.74-0.012-2.109-1.073-2.109c-1.69,0-1.554,1.998-1.554,2.899v3.182
				c0,0.95,0.086,2.492,1.554,2.492c1.184,0,1.036-1.9,1.085-2.64H74.715L74.715,32.395z"/>
			<path class="st2" d="M81.574,24.981h2.146v8.018c0,2.541-0.826,3.762-3.639,3.762c-2.837,0-3.663-1.209-3.663-3.762v-8.018h2.146
				v7.833c0,1.098,0.086,2.208,1.542,2.208c1.394,0,1.468-1.098,1.468-2.208L81.574,24.981L81.574,24.981z"/>
			<path class="st2" d="M87.889,31.531v4.946h-2.134V24.994h4.058c1.85,0,3.269,0.641,3.269,2.763c0,1.258-0.321,2.578-1.752,2.775
				v0.025c1.27,0.16,1.665,0.974,1.665,2.085c0,0.481-0.074,3.293,0.469,3.639v0.222h-2.381c-0.259-0.74-0.222-2.146-0.234-2.911
				c-0.012-0.703,0-1.678-0.74-1.875c-0.58-0.16-1.209-0.148-1.826-0.148L87.889,31.531L87.889,31.531z M87.889,29.841h1.69
				c0.703-0.037,1.258-0.506,1.258-1.665c0-1.295-0.53-1.493-1.345-1.505h-1.591L87.889,29.841L87.889,29.841z"/>
			<path class="st2" d="M95.08,36.478V24.994h6.032v1.69h-3.898v2.899h3.577v1.69h-3.577v3.54h3.898v1.69H95.08V36.478z"/>
		</g>
		<g>
			<path class="st1" d="M93.687,11.894h-3.269v0.222c0.012,0.493,0.173,1.098,0.999,1.098h0.962H93.6
				c1.283,0,1.949,0.419,1.752,1.838l-0.148,1.147c-0.185,1.468-1.233,1.69-2.183,1.69h-1.233l0.345-2.837
				c0.049-0.407-0.148-1.073-0.925-1.073h-1.073L89.85,16.31l-0.271,2.048c-0.074,0.543,0.321,0.863,1.184,0.863h2.504
				c2.553,0,3.244-0.925,3.589-1.493c0.185-0.321,0.321-0.74,0.407-1.209c0.012-0.099,0.185-1.554,0.185-1.554
				c0.111-0.888-0.049-1.554-0.506-2.06C96.388,12.227,95.315,11.894,93.687,11.894"/>
			<path class="st1" d="M64.058,11.734L64.058,11.734L64.058,11.734H63.7c-2.578,0.025-3.91,1.085-4.194,3.145l-0.16,1.32
				c-0.111,0.913,0.049,1.591,0.506,2.097c0.543,0.617,1.493,1.061,2.948,1.073h0.37c2.504-0.025,3.848-1.061,4.169-2.973
				l0.025-0.136l0.16-1.32c0.111-0.95-0.049-1.665-0.506-2.159C66.451,12.153,65.501,11.746,64.058,11.734 M65.403,14.916
				l-0.16,1.209c-0.074,0.543-0.222,0.95-0.444,1.258c-0.321,0.407-0.802,0.654-1.48,0.654h-0.382h-0.012
				c-0.666,0-1.159-0.234-1.357-0.617c-0.136-0.284-0.173-0.691-0.111-1.233l0.16-1.209c0.086-0.654,0.296-1.135,0.629-1.456
				c0.321-0.321,0.802-0.481,1.357-0.481h0.012h0.358l0,0c0.395,0,0.9,0.074,1.196,0.444C65.403,13.806,65.489,14.275,65.403,14.916
				"/>
			<path class="st1" d="M106.86,12.758c-0.543-0.617-1.493-1.024-2.936-1.036l0,0l0,0h-0.358c-2.578,0.025-3.91,1.085-4.194,3.145
				l-0.16,1.32c-0.111,0.913,0.049,1.591,0.506,2.097c0.543,0.617,1.493,1.061,2.948,1.073h0.358
				c2.504-0.025,3.848-1.061,4.169-2.973l0.025-0.136l0.16-1.32C107.489,13.979,107.329,13.263,106.86,12.758 M105.269,14.916
				l-0.16,1.209c-0.074,0.543-0.222,0.95-0.444,1.258c-0.321,0.407-0.802,0.654-1.48,0.654h-0.382h-0.012
				c-0.666,0-1.159-0.234-1.357-0.617c-0.136-0.284-0.173-0.691-0.111-1.233l0.16-1.209c0.086-0.654,0.284-1.135,0.629-1.456
				c0.321-0.321,0.802-0.481,1.357-0.481h0.012h0.358l0,0c0.395,0,0.913,0.074,1.196,0.444
				C105.269,13.806,105.355,14.275,105.269,14.916"/>
			<path class="st1" d="M84.744,11.734L84.744,11.734L84.744,11.734h-0.37c-2.578,0.025-3.91,1.085-4.194,3.145l-0.16,1.32
				c-0.111,0.913,0.049,1.591,0.506,2.097c0.543,0.617,1.493,1.061,2.948,1.073h0.37c2.504-0.025,3.848-1.061,4.169-2.973
				l0.025-0.136l0.16-1.32c0.111-0.95-0.049-1.665-0.506-2.159C87.124,12.153,86.175,11.746,84.744,11.734 M86.076,14.916
				l-0.16,1.209c-0.074,0.543-0.222,0.95-0.444,1.258c-0.308,0.407-0.802,0.654-1.48,0.654h-0.382h-0.012
				c-0.666,0-1.159-0.234-1.357-0.617c-0.136-0.284-0.173-0.691-0.111-1.233l0.16-1.209c0.086-0.654,0.296-1.135,0.629-1.456
				c0.333-0.321,0.802-0.481,1.369-0.481H84.3h0.358l0,0c0.395,0,0.913,0.074,1.196,0.444
				C86.088,13.806,86.162,14.275,86.076,14.916"/>
			<path class="st1" d="M76.615,12.301l-2.812,3.195l-1.986-3.17c-0.185-0.296-0.567-0.432-1.147-0.432h-0.9l-0.9,7.327h1.085
				c0.37,0,0.629-0.16,0.777-0.284c0.234-0.21,0.382-0.493,0.419-0.789l0.395-3.207l1.456,2.775
				c0.074,0.111,0.247,0.345,0.481,0.345h0.012c0.247,0,0.444-0.234,0.518-0.308l2.22-2.788l-0.53,4.28h1.048
				c0.37,0,0.629-0.16,0.777-0.284c0.234-0.21,0.382-0.493,0.419-0.789l0.777-6.254h-0.925
				C77.269,11.882,76.862,12.03,76.615,12.301"/>
			<path class="st1" d="M55.51,11.894c-0.37,0-0.691,0.025-1.011,0.086c-1.826,0.271-2.8,1.27-3.034,2.948l-0.16,1.283
				c-0.111,0.888,0.049,1.542,0.481,2.023c0.493,0.555,1.344,1.011,2.603,1.011h2.208c1.283,0,1.431-1.332,1.431-1.332h-2.923
				c-0.395,0-0.777-0.037-1.048-0.136c-0.37-0.136-0.604-0.37-0.666-0.802c-0.025-0.173-0.025-0.543,0.012-0.789l0.148-1.11
				c0.037-0.284,0.136-0.617,0.173-0.703c0.111-0.271,0.284-0.543,0.567-0.752c0.16-0.123,0.555-0.358,1.554-0.358h1.616
				c1.135,0,1.332-1.332,1.332-1.332H55.51V11.894L55.51,11.894z"/>
		</g>
	</g>
	<path class="st1" d="M24.71,0.435c-13.568,0-24.571,11.003-24.571,24.559S11.142,49.565,24.71,49.565s24.559-11.003,24.559-24.583
		S38.266,0.435,24.71,0.435z"/>
	
		<linearGradient id="SVGID_1_" gradientUnits="userSpaceOnUse" x1="6.9178" y1="718.8539" x2="46.6931" y2="786.2025" gradientTransform="matrix(1 0 0 1 0 -724)">
		<stop  offset="0" style="stop-color:#FFFFFF"/>
		<stop  offset="0.0599" style="stop-color:#BEBEBE"/>
		<stop  offset="0.1275" style="stop-color:#797979"/>
		<stop  offset="0.1903" style="stop-color:#9F9F9F"/>
		<stop  offset="0.2705" style="stop-color:#C8C8C8"/>
		<stop  offset="0.3433" style="stop-color:#E6E6E6"/>
		<stop  offset="0.4055" style="stop-color:#F8F8F8"/>
		<stop  offset="0.4497" style="stop-color:#FFFFFF"/>
		<stop  offset="0.5122" style="stop-color:#F9F9F9"/>
		<stop  offset="0.5925" style="stop-color:#E9E9E9"/>
		<stop  offset="0.6828" style="stop-color:#CFCFCF"/>
		<stop  offset="0.7801" style="stop-color:#AAAAAA"/>
		<stop  offset="0.8823" style="stop-color:#7B7B7B"/>
		<stop  offset="0.8863" style="stop-color:#797979"/>
		<stop  offset="0.9085" style="stop-color:#9F9F9F"/>
		<stop  offset="0.9368" style="stop-color:#C8C8C8"/>
		<stop  offset="0.9624" style="stop-color:#E6E6E6"/>
		<stop  offset="0.9844" style="stop-color:#F8F8F8"/>
		<stop  offset="1" style="stop-color:#FFFFFF"/>
	</linearGradient>
	<path class="st3" d="M24.71,1.323c-13.075,0-23.671,10.596-23.671,23.658S11.635,48.652,24.71,48.652s23.671-10.583,23.671-23.671
		S37.773,1.323,24.71,1.323z"/>
	
		<linearGradient id="SVGID_2_" gradientUnits="userSpaceOnUse" x1="17.487" y1="723.2376" x2="31.7407" y2="774.1121" gradientTransform="matrix(1 0 0 1 0 -724)">
		<stop  offset="0.067" style="stop-color:#393A3A"/>
		<stop  offset="0.1866" style="stop-color:#3C3D3D"/>
		<stop  offset="0.2921" style="stop-color:#474848"/>
		<stop  offset="0.3923" style="stop-color:#595A5A"/>
		<stop  offset="0.4893" style="stop-color:#737373"/>
		<stop  offset="0.5839" style="stop-color:#949494"/>
		<stop  offset="0.6767" style="stop-color:#BCBCBC"/>
		<stop  offset="0.7665" style="stop-color:#EBEBEB"/>
		<stop  offset="0.8015" style="stop-color:#FFFFFF"/>
		<stop  offset="0.8373" style="stop-color:#F9F9F9"/>
		<stop  offset="0.8833" style="stop-color:#E9E9E9"/>
		<stop  offset="0.9349" style="stop-color:#CFCFCF"/>
		<stop  offset="0.9903" style="stop-color:#AAAAAA"/>
		<stop  offset="1" style="stop-color:#A3A3A3"/>
	</linearGradient>
	<path class="st4" d="M24.71,4.987c-11.052,0-20.019,8.955-20.019,20.007s8.955,20.019,20.019,20.019s20.007-8.967,20.007-20.019
		S35.75,4.987,24.71,4.987z"/>
	<g>
		<circle class="st5" cx="24.71" cy="24.981" r="18.28"/>
	</g>
	<g>
		<circle class="st6" cx="24.71" cy="24.981" r="16.381"/>
	</g>
	<g>
		<circle class="st7" cx="24.71" cy="24.981" r="14.025"/>
	</g>
	<g>
		<circle class="st5" cx="24.71" cy="24.981" r="12.582"/>
	</g>
	<g>
		<circle class="st8" cx="24.71" cy="24.981" r="11.286"/>
	</g>
	<g>
		<g class="st9">
			<g>
				<path d="M17.075,23.353h-4.256c-0.419,0-0.752,0.382-0.691,0.802l1.443,9.424c0.049,0.333,0.345,0.592,0.691,0.592h2.812
					c0.382,0,0.691-0.308,0.691-0.691v-9.424C17.778,23.674,17.469,23.353,17.075,23.353z"/>
			</g>
			<g>
				<path d="M36.551,27.078c0-0.728-0.407-1.382-1.024-1.727c0.419-0.37,0.666-0.9,0.666-1.48c0-1.098-0.876-1.974-1.974-1.974
					h-5.748c-0.185,0-0.444-0.025-0.555-0.173c-0.074-0.086-0.074-0.21-0.074-0.271c1.468-1.986,1.196-5.526,1.184-5.649
					c0-1.221-0.802-1.961-1.567-2.048c-0.617-0.074-1.493,0.308-1.789,1.616c-0.234,1.048-1.233,3.91-2.085,5.279
					c-1.838,2.973-3.873,3.281-4.009,3.293c-0.148,0.012-0.259,0.136-0.259,0.284v8.93c0,0.16,0.123,0.284,0.284,0.284
					c1.702,0,3.01,0.321,4.49,0.691c1.801,0.444,3.836,0.962,7.019,0.962c1.591,0,2.368-0.617,2.738-1.147
					c0.049-0.062,0.086-0.123,0.123-0.185c0,0,0.049-0.086,0.049-0.099c0.037-0.074,0.086-0.16,0.111-0.247
					c0.037-0.099,0.062-0.173,0.074-0.234l0.025-0.111c0-0.012,0-0.037,0-0.049c0.012-0.099,0.025-0.185,0.025-0.284
					c0-0.333-0.086-0.654-0.247-0.962c0.789-0.259,1.382-1.011,1.382-1.875c0-0.333-0.086-0.654-0.247-0.962
					C35.984,28.694,36.551,27.954,36.551,27.078z M33.801,33.53L33.801,33.53L33.801,33.53L33.801,33.53z"/>
			</g>
		</g>
		<g>
			<g>
				<path class="st1" d="M17.075,22.07h-4.256c-0.419,0-0.752,0.382-0.691,0.802l1.443,9.424c0.049,0.333,0.345,0.592,0.691,0.592
					h2.812c0.382,0,0.691-0.308,0.691-0.691v-9.424C17.778,22.391,17.469,22.07,17.075,22.07z"/>
			</g>
			<g>
				<path class="st1" d="M36.551,25.796c0-0.728-0.407-1.382-1.024-1.727c0.419-0.37,0.666-0.9,0.666-1.48
					c0-1.098-0.876-1.974-1.974-1.974h-5.748c-0.185,0-0.444-0.025-0.555-0.173c-0.074-0.086-0.074-0.21-0.074-0.271
					c1.468-1.986,1.196-5.526,1.184-5.649c0-1.221-0.802-1.961-1.567-2.048c-0.617-0.074-1.493,0.308-1.789,1.616
					c-0.234,1.048-1.233,3.91-2.085,5.279c-1.838,2.973-3.873,3.281-4.009,3.293c-0.148,0.012-0.259,0.136-0.259,0.284v8.93
					c0,0.16,0.123,0.284,0.284,0.284c1.702,0,3.01,0.321,4.49,0.691c1.801,0.444,3.836,0.962,7.019,0.962
					c1.591,0,2.368-0.617,2.738-1.147c0.049-0.062,0.086-0.123,0.123-0.185c0,0,0.049-0.086,0.049-0.099
					c0.037-0.074,0.086-0.16,0.111-0.247c0.037-0.099,0.062-0.173,0.074-0.234l0.025-0.111c0-0.012,0-0.037,0-0.049
					c0.012-0.099,0.025-0.185,0.025-0.284c0-0.333-0.086-0.654-0.247-0.962c0.789-0.259,1.382-1.011,1.382-1.875
					c0-0.333-0.086-0.654-0.247-0.962C35.984,27.411,36.551,26.671,36.551,25.796z M33.801,32.247L33.801,32.247L33.801,32.247
					L33.801,32.247z"/>
			</g>
		</g>
	</g>
</g>
</svg>
