<svg width="120" height="120" viewBox="0 0 120 120" fill="none" xmlns="http://www.w3.org/2000/svg">
<g clip-path="url(#clip0_2444_2821)">
<path d="M0 0C39.6 0 79.2 0 120 0C120 39.6 120 79.2 120 120C80.4 120 40.8 120 0 120C0 80.4 0 40.8 0 0Z" fill="#0C996F"/>
<path d="M37.8662 20.2666C76.9462 20.2666 76.9462 20.2666 82.6662 25.5999C86.8658 29.9904 88.1985 34.3291 88.1516 40.2874C87.8132 44.3955 86.1824 47.934 83.7329 51.1999C83.3809 51.7279 83.0289 52.2559 82.6662 52.7999C82.9694 53.0076 83.2726 53.2152 83.585 53.4291C88.6576 57.1045 92.6902 62.5168 93.8662 68.7999C94.2804 77.0738 93.1564 82.7799 87.935 89.4437C85.4683 92.1516 82.8338 94.0165 79.5995 95.6666C79.2761 95.8318 78.9527 95.9969 78.6195 96.1671C65.3148 102.462 53.3777 99.7333 37.8662 99.7333C37.8662 73.5093 37.8662 47.2853 37.8662 20.2666Z" fill="#FAFCFC"/>
<path d="M74.0877 58.821C77.6574 60.0376 79.9009 63.3317 81.5439 66.5606C82.9022 70.4913 82.8271 75.0048 81.3335 78.9002C78.9302 83.3623 75.0885 86.242 70.4002 88.0002C67.5016 88.8274 65.0214 89.1955 61.9835 89.171C61.6107 89.1695 61.238 89.168 60.8539 89.1664C59.6803 89.1605 58.507 89.1471 57.3335 89.1335C56.5307 89.1281 55.728 89.1233 54.9252 89.1189C52.9723 89.1072 51.0196 89.0889 49.0669 89.0668C49.0004 86.9424 48.9523 84.8184 48.9204 82.6931C48.9005 81.6196 48.8666 80.5463 48.8325 79.4731C48.7722 74.6781 49.3023 71.9029 52.5947 68.4233C57.3108 63.7987 64.9659 61.9822 70.993 59.61C73.2447 58.6937 73.2447 58.6937 74.0877 58.821Z" fill="#0C996F"/>
<path d="M49.0664 30.9333C52.4104 30.8893 55.7544 30.8453 59.1997 30.8C60.2468 30.7805 61.2939 30.7611 62.3727 30.7411C63.215 30.7349 64.0574 30.7294 64.8997 30.725C65.5407 30.7086 65.5407 30.7086 66.1945 30.6919C69.2635 30.69 71.5686 31.347 74.1331 33.0666C75.9143 34.9369 76.4042 36.3811 76.4997 38.9C76.3131 42.797 74.9257 45.5359 72.0935 48.1687C68.0204 51.3204 62.9782 52.931 58.1471 54.5541C54.6877 55.7564 52.3696 57.2181 49.0664 59.2C49.0664 49.872 49.0664 40.544 49.0664 30.9333Z" fill="#0B986E"/>
</g>
<defs>
<clipPath id="clip0_2444_2821">
<rect width="120" height="120" rx="60" fill="white"/>
</clipPath>
</defs>
</svg>
