<svg width="18" height="18" viewBox="0 0 18 18" fill="none" xmlns="http://www.w3.org/2000/svg">
<path d="M12.9457 16.3965C12.9785 16.0917 13.0301 15.8104 13.0348 15.529C13.0535 14.5913 12.7534 13.7333 12.3127 12.9221C11.9329 12.2235 11.5297 11.5389 11.1499 10.8403C10.8873 10.3574 10.6998 9.84163 10.5919 9.29774C10.5028 8.87106 10.0856 8.7304 9.74796 9.01641C9.1103 9.55093 8.68831 10.2402 8.36948 10.9997C8.03658 11.7874 7.93343 12.622 7.84434 13.4613C7.83965 13.5176 7.83497 13.5785 7.83028 13.6348C7.82559 13.6817 7.81621 13.7286 7.80214 13.8364C7.58646 13.5457 7.38485 13.2972 7.22074 13.03C7.08008 12.7955 6.97224 12.5423 6.86909 12.2891C6.78938 12.1016 6.67216 11.975 6.46586 11.9422C6.26893 11.914 6.16578 11.9797 6.07201 12.1532C5.88915 12.5048 5.66878 12.8424 5.51405 13.2034C5.07331 14.2584 4.97485 15.3415 5.31243 16.4433C5.3265 16.4949 5.34526 16.5418 5.36401 16.5934C5.37808 16.6356 5.39683 16.6778 5.42496 16.7481C4.72634 16.3965 4.13557 15.9604 3.64794 15.3837C2.73364 14.3006 2.4148 13.03 2.48045 11.6421C2.52264 10.7465 2.72426 9.88383 3.02434 9.03986C3.07123 8.90388 3.12749 8.78197 3.2916 8.78666C3.44632 8.78666 3.50259 8.90857 3.54947 9.03517C3.73702 9.55093 3.92457 10.0667 4.1215 10.5778C4.15432 10.6622 4.25278 10.7184 4.32311 10.7887C4.39813 10.709 4.50597 10.6387 4.5388 10.5402C4.64664 10.2261 4.56693 9.91196 4.48253 9.60719C4.34187 9.08205 4.1637 8.56629 4.01366 8.04585C3.61043 6.62516 4.07461 5.44829 5.04987 4.42146C5.20459 4.26205 5.37339 4.1167 5.54218 3.97135C5.63596 3.88695 5.73911 3.826 5.87508 3.88695C6.01105 3.9479 6.03919 4.05574 6.04856 4.18703C6.08138 4.60901 6.17047 5.01693 6.33926 5.42016C6.86909 5.00287 7.23481 4.47773 7.48331 3.87288C7.78808 3.12269 7.87716 2.34436 7.73181 1.54728C7.6943 1.35504 7.6146 1.16749 7.56302 0.975255C7.52082 0.820527 7.52082 0.665799 7.65679 0.557959C7.79277 0.445429 7.95687 0.47825 8.08816 0.557959C8.45857 0.792395 8.84304 1.01276 9.17594 1.2894C10.5122 2.40063 11.2906 3.826 11.4969 5.55614C11.5297 5.82808 11.5391 6.10472 11.5719 6.37666C11.5813 6.44699 11.6469 6.50795 11.6891 6.57359C11.7547 6.51263 11.8391 6.46106 11.8766 6.39073C11.9282 6.28758 11.9376 6.16567 11.9704 6.05314C12.0361 5.81402 12.2377 5.75306 12.4252 5.92186C13.9491 7.30972 14.9946 8.99297 15.487 10.9997C15.8667 12.547 15.3885 13.888 14.4039 15.0742C14.1413 15.3884 13.8318 15.6603 13.5318 15.937C13.3442 16.1011 13.1473 16.237 12.9457 16.3965Z" fill="#F95353"/>
<path d="M6.42832 12.4955C6.67214 13.1613 7.04254 13.7005 7.50673 14.1788C7.65208 14.3288 7.80212 14.432 8.0178 14.3523C8.23817 14.2679 8.33663 14.0991 8.36945 13.8693C8.46792 13.1707 8.53825 12.4627 8.69297 11.7735C8.8899 10.9154 9.32126 10.1652 9.94955 9.53695C9.98706 9.49944 10.0246 9.46662 10.0668 9.42911C10.0761 9.42442 10.0902 9.42442 10.1137 9.41504C10.3481 10.5638 10.9529 11.5437 11.5578 12.519C11.9751 13.1988 12.3267 13.9115 12.4674 14.7086C12.5893 15.3791 12.5705 16.0402 12.3033 16.6732C12.2705 16.7482 12.1954 16.8279 12.1251 16.8654C11.4828 17.1796 10.7935 17.3343 10.0855 17.414C8.81957 17.5593 7.57237 17.4843 6.34861 17.1186C6.17513 17.067 6.07198 16.9779 5.99227 16.8232C5.67344 16.2231 5.61248 15.5713 5.63124 14.9149C5.64999 14.0475 5.93601 13.2504 6.42832 12.4955Z" fill="#FFD550"/>
</svg>
