<svg width="20" height="21" viewBox="0 0 20 21" fill="none" xmlns="http://www.w3.org/2000/svg">
<g clip-path="url(#clip0_1373_1961)">
<path d="M2.33317 20.8728C2.37779 20.873 2.42241 20.8732 2.46838 20.8735C2.51698 20.8735 2.56558 20.8736 2.61566 20.8736C2.66713 20.8738 2.7186 20.874 2.77164 20.8742C2.91265 20.8747 3.05366 20.875 3.19467 20.8751C3.28295 20.8752 3.37123 20.8754 3.45951 20.8756C3.73624 20.8761 4.01297 20.8765 4.2897 20.8766C4.60815 20.8768 4.9266 20.8775 5.24505 20.8786C5.49181 20.8795 5.73856 20.8799 5.98532 20.8799C6.1324 20.88 6.27947 20.8802 6.42655 20.8809C6.56516 20.8815 6.70376 20.8816 6.84237 20.8813C6.91673 20.8812 6.9911 20.8818 7.06546 20.8823C7.79079 20.8788 8.34413 20.6131 8.87206 20.1271C9.45305 19.5337 9.57663 18.7423 9.57628 17.948C9.57641 17.9043 9.57654 17.8607 9.57668 17.8157C9.57704 17.6727 9.57712 17.5297 9.57717 17.3866C9.57729 17.2863 9.57742 17.1859 9.57756 17.0856C9.57779 16.8756 9.57787 16.6656 9.57784 16.4556C9.57782 16.2146 9.57823 15.9735 9.57885 15.7324C9.57943 15.4987 9.57956 15.2649 9.57954 15.0312C9.57958 14.9326 9.57975 14.834 9.58006 14.7354C9.5829 13.7193 9.549 12.8028 8.81606 12.018C8.30371 11.5489 7.69235 11.3342 7.00646 11.3121C6.94787 11.3099 6.94787 11.3099 6.8881 11.3077C6.47079 11.2932 6.0535 11.2899 5.63597 11.2891C5.59602 11.289 5.55606 11.2888 5.5149 11.2887C5.30398 11.2881 5.09307 11.2878 4.88215 11.2876C4.66729 11.2874 4.45244 11.2865 4.23759 11.2853C4.06941 11.2846 3.90123 11.2844 3.73305 11.2844C3.65392 11.2842 3.57479 11.2839 3.49566 11.2834C2.5321 11.2775 1.42981 11.3285 0.688769 12.027C0.138759 12.6172 -0.0121678 13.3569 -0.0104367 14.1401C-0.0106363 14.1876 -0.0108359 14.2351 -0.0110416 14.284C-0.0114879 14.4129 -0.0115879 14.5418 -0.0114884 14.6707C-0.0114462 14.7791 -0.0116384 14.8874 -0.0118245 14.9957C-0.012256 15.2516 -0.0122761 15.5075 -0.0120388 15.7635C-0.0118031 16.0259 -0.0122836 16.2883 -0.0131157 16.5507C-0.0138079 16.7774 -0.0140377 17.0042 -0.0139112 17.231C-0.013841 17.3657 -0.013937 17.5005 -0.014486 17.6353C-0.0175637 18.5882 0.01609 19.4405 0.707079 20.1727C1.1433 20.5837 1.72709 20.871 2.33317 20.8728Z" fill="white"/>
<path d="M3.01549 10.4438C3.05741 10.444 3.09932 10.4442 3.14251 10.4444C3.28013 10.4449 3.41774 10.4452 3.55535 10.4454C3.62647 10.4456 3.62647 10.4456 3.69903 10.4457C3.95012 10.4463 4.20122 10.4467 4.45231 10.4469C4.70971 10.4471 4.9671 10.448 5.2245 10.4491C5.42414 10.4499 5.62379 10.4501 5.82343 10.4501C5.91822 10.4502 6.013 10.4505 6.10779 10.4511C6.99669 10.4556 7.95353 10.45 8.67147 9.85154C8.70153 9.82722 8.7316 9.8029 8.76257 9.77784C9.33224 9.26833 9.51724 8.43474 9.56991 7.7031C9.58418 7.3623 9.58188 7.02104 9.58166 6.68C9.58181 6.58158 9.58198 6.48316 9.58217 6.38474C9.58246 6.17945 9.58245 5.97416 9.58224 5.76887C9.58201 5.53317 9.58249 5.29749 9.58332 5.06179C9.5841 4.83287 9.58421 4.60395 9.58407 4.37502C9.58409 4.27858 9.58429 4.18214 9.58469 4.0857C9.58927 2.81496 9.58927 2.81496 9.30624 2.29783C9.29251 2.27177 9.27878 2.24571 9.26464 2.21886C8.92559 1.59125 8.40474 1.15117 7.72466 0.935983C7.54907 0.88755 7.38858 0.862251 7.20618 0.861679C7.16337 0.861456 7.12056 0.861234 7.07646 0.861004C7.02987 0.86096 6.98327 0.860916 6.93527 0.860871C6.88589 0.860677 6.83651 0.860483 6.78564 0.860284C6.65035 0.859772 6.51506 0.859519 6.37977 0.859345C6.29499 0.85923 6.21022 0.859071 6.12544 0.858896C5.8595 0.858362 5.59355 0.857985 5.3276 0.857834C5.02198 0.857659 4.71636 0.856976 4.41073 0.855841C4.17369 0.854992 3.93665 0.854603 3.69961 0.85455C3.55844 0.85451 3.41728 0.854286 3.27612 0.853581C2.24391 0.848727 1.43625 0.899533 0.656335 1.64109C0.228173 2.08317 -0.00334486 2.6947 -0.00615196 3.31197C-0.00643147 3.35445 -0.00671097 3.39693 -0.00699894 3.44069C-0.00710398 3.48671 -0.00720902 3.53274 -0.00731723 3.58016C-0.00757392 3.6291 -0.00783061 3.67804 -0.00809507 3.72847C-0.00886447 3.89032 -0.00932161 4.05217 -0.00971096 4.21403C-0.00986924 4.27005 -0.0100301 4.32607 -0.0101935 4.38209C-0.0109371 4.6456 -0.0114929 4.9091 -0.0118189 5.17261C-0.0121995 5.47521 -0.0132249 5.7778 -0.0148072 6.08039C-0.0159924 6.31524 -0.0165643 6.55009 -0.016693 6.78495C-0.0167841 6.92474 -0.0171243 7.06452 -0.0181173 7.20431C-0.0245875 8.16532 0.0321116 9.00835 0.741785 9.73435C1.40309 10.3153 2.16067 10.4428 3.01549 10.4438Z" fill="white"/>
<path d="M13.1018 20.8781C13.1533 20.8783 13.2048 20.8785 13.2579 20.8787C13.3982 20.8792 13.5386 20.8792 13.6789 20.8791C13.7966 20.8791 13.9142 20.8793 14.0318 20.8795C14.3097 20.8799 14.5875 20.8799 14.8653 20.8797C15.1508 20.8795 15.4363 20.8799 15.7218 20.8808C15.9679 20.8815 16.214 20.8817 16.4601 20.8816C16.6066 20.8815 16.7532 20.8816 16.8997 20.8821C17.0377 20.8826 17.1757 20.8826 17.3136 20.882C17.3876 20.8819 17.4616 20.8824 17.5356 20.8828C18.2273 20.8786 18.7809 20.6378 19.2712 20.1546C19.7968 19.6097 20.0191 19.0015 20.0151 18.2485C20.0154 18.1756 20.0154 18.1756 20.0157 18.1013C20.0162 17.9694 20.0161 17.8375 20.0157 17.7056C20.0154 17.5665 20.0157 17.4274 20.0159 17.2883C20.0161 17.0546 20.0158 16.821 20.0152 16.5873C20.0146 16.3189 20.0148 16.0504 20.0154 15.7819C20.016 15.5499 20.0161 15.3178 20.0157 15.0858C20.0156 14.9479 20.0155 14.81 20.0159 14.6721C20.0184 13.6749 19.9827 12.7659 19.248 12.0124C18.5285 11.306 17.5387 11.2841 16.5881 11.288C16.5123 11.2881 16.4365 11.2881 16.3607 11.2881C16.2023 11.2882 16.0439 11.2885 15.8856 11.289C15.6866 11.2897 15.4876 11.2898 15.2886 11.2898C14.5918 11.2898 13.8946 11.2908 13.1979 11.3078C13.1223 11.3096 13.0468 11.311 12.9713 11.3123C12.2088 11.3349 11.6145 11.6093 11.0937 12.1564C10.5226 12.7809 10.4236 13.5135 10.424 14.3266C10.4238 14.3691 10.4237 14.4115 10.4236 14.4552C10.4232 14.5941 10.4231 14.7329 10.4231 14.8717C10.423 14.9693 10.4228 15.0669 10.4227 15.1645C10.4225 15.3685 10.4224 15.5726 10.4224 15.7766C10.4224 16.0365 10.4219 16.2963 10.4212 16.5562C10.4208 16.7577 10.4207 16.9591 10.4207 17.1606C10.4207 17.2563 10.4205 17.352 10.4202 17.4477C10.4176 18.3558 10.4235 19.164 10.9765 19.9299C10.9965 19.9575 11.0164 19.9852 11.0369 20.0136C11.5439 20.6498 12.3201 20.8797 13.1018 20.8781Z" fill="white"/>
<path d="M18.4433 8.56596C18.5493 8.47927 18.6511 8.38864 18.7521 8.29622C18.7762 8.27447 18.8002 8.25273 18.825 8.23032C19.5208 7.56905 19.9666 6.59396 19.9988 5.63633C20.0243 4.44018 19.6415 3.39453 18.8174 2.52008C18.7958 2.49597 18.7741 2.47187 18.7519 2.44703C18.1596 1.81287 17.2491 1.42588 16.3889 1.37068C15.216 1.3331 14.1841 1.59346 13.3103 2.40637C13.0534 2.65197 12.84 2.90241 12.6523 3.20538C12.623 3.24961 12.623 3.24961 12.5931 3.29474C12.0634 4.13281 11.8874 5.22882 12.0695 6.1999C12.0951 6.31326 12.127 6.42355 12.163 6.53401C12.1733 6.56678 12.1733 6.56678 12.1837 6.60022C12.3372 7.08211 12.5784 7.52492 12.9133 7.90462C12.936 7.93129 12.9588 7.95796 12.9822 7.98544C14.3258 9.52783 16.8054 9.86119 18.4433 8.56596Z" fill="white"/>
</g>
<defs>
<clipPath id="clip0_1373_1961">
<rect width="20" height="20" fill="white" transform="matrix(1 0 0 -1 0 20.8672)"/>
</clipPath>
</defs>
</svg>
