<svg width="20" height="20" viewBox="0 0 20 20" fill="none" xmlns="http://www.w3.org/2000/svg">
<g clip-path="url(#clip0_611_222)">
<path d="M2 14.4427C2.03646 14.3177 2.07812 14.1927 2.10417 14.0625C2.53125 12.2708 4.09375 11.0156 5.93229 11.0052C8.28646 10.9948 10.6458 11 13 11.0104C13.3333 11.0104 13.6719 11.0833 14.0052 11.125C14.0469 11.1302 14.0885 11.1562 14.1406 11.1719C13.6354 11.5625 13.2604 12.0364 13.0365 12.625C13.0156 12.6771 12.9271 12.7187 12.8594 12.7344C11.5052 13.0677 10.4635 14.625 10.1771 16V16C9.94577 17.0988 10.4129 18.236 10.9849 19.2022C11.1515 19.4836 11.3285 19.7634 11.5 20C12.1719 20.0052 10.224 20.5052 10.1771 20.5052C7.68229 20.5052 5.19271 20.5 2.69792 20.5104C2.35937 20.5104 2.16667 20.3281 2 20.0781C2 18.8646 2 15.6562 2 14.4427Z" fill="white"/>
<path d="M9.96896 1.00521C10.1304 1.04167 10.2867 1.07812 10.4481 1.11458C12.3544 1.55208 13.7294 3.31771 13.6669 5.25C13.6044 7.26562 12.1669 8.9375 10.2085 9.27604C7.97938 9.66146 5.81271 8.15625 5.40646 5.94792C4.995 3.70313 6.43771 1.54687 8.65125 1.08333C8.75542 1.0625 8.85438 1.02604 8.95855 1C9.29188 1.00521 9.63042 1.00521 9.96896 1.00521Z" fill="white"/>
<path fill-rule="evenodd" clip-rule="evenodd" d="M14.5 20.0051C16.433 20.0051 18 18.4381 18 16.5051C18 14.5721 16.433 13.0051 14.5 13.0051C12.567 13.0051 11 14.5721 11 16.5051C11 18.4381 12.567 20.0051 14.5 20.0051ZM13 15.6512V15.8582L13.0038 15.8817C13.0073 15.9029 13.0108 15.9238 13.0128 15.9453C13.0383 16.1435 13.0921 16.3327 13.217 16.4954C13.3574 16.6775 13.547 16.7815 13.7786 16.7966C13.9068 16.8052 14.0354 16.8032 14.1657 16.8011H14.1657H14.1658H14.1658C14.2236 16.8002 14.2817 16.7993 14.3402 16.7993L14.3401 16.7591C14.3399 16.7168 14.3397 16.6718 14.3411 16.6269C14.342 16.5922 14.3448 16.5558 14.3539 16.522C14.3894 16.3958 14.507 16.307 14.6411 16.3061L14.6811 16.3056H14.6811C14.7575 16.3045 14.8348 16.3034 14.91 16.3132C15.0495 16.3301 15.1562 16.4554 15.1598 16.5931C15.161 16.6397 15.1606 16.6859 15.1602 16.7329C15.16 16.7568 15.1598 16.781 15.1598 16.8055H15.1954C15.2478 16.8049 15.3003 16.8051 15.3529 16.8052H15.3529H15.3529C15.4712 16.8055 15.5897 16.8058 15.7077 16.7984C16.0369 16.7779 16.2593 16.6047 16.3906 16.3141C16.4517 16.1799 16.4781 16.0368 16.4927 15.892C16.4934 15.8853 16.4956 15.8786 16.4978 15.872L16.4978 15.872L16.5 15.8653V15.6583L16.4836 15.6094C16.4417 15.4868 16.3259 15.405 16.19 15.405C16.0305 15.4044 15.8715 15.4046 15.7109 15.4048L15.467 15.405V15.3233C15.467 15.1322 15.3376 15.0051 15.1425 15.0051H14.3566C14.1624 15.0051 14.032 15.1331 14.032 15.3233V15.405H13.9928H13.33C13.1623 15.405 13.0538 15.4841 13.0064 15.6414C13.0057 15.6442 13.0039 15.6464 13.0018 15.6489L13 15.6512ZM15.2628 15.4032H14.2372C14.2372 15.3748 14.2372 15.349 14.2381 15.3224C14.2381 15.2442 14.2773 15.2051 14.3566 15.2051H14.8617H15.1516C15.22 15.2051 15.2619 15.2459 15.2628 15.3126V15.4032ZM13 17.9317V16.5516C13.0025 16.5538 13.0051 16.5557 13.0077 16.5576L13.0077 16.5576C13.0126 16.5612 13.0174 16.5647 13.021 16.5694C13.0327 16.5838 13.0439 16.5985 13.0552 16.6133L13.0552 16.6133C13.0745 16.6386 13.0939 16.664 13.1158 16.6876C13.3136 16.9009 13.5662 16.9959 13.8561 17.0039C13.9602 17.007 14.0644 17.0063 14.1685 17.0055C14.2148 17.0052 14.2611 17.0048 14.3074 17.0048H14.3393C14.3502 17.1852 14.4797 17.3043 14.6602 17.3043C14.6805 17.3043 14.7007 17.3045 14.721 17.3048H14.721C14.7681 17.3053 14.8151 17.3059 14.8617 17.3034C14.982 17.2981 15.0723 17.243 15.1261 17.1381C15.1404 17.1103 15.1483 17.08 15.1565 17.0486C15.1604 17.0339 15.1643 17.019 15.1689 17.0039H15.1872C15.2403 17.0031 15.2935 17.0027 15.3466 17.0023H15.3466H15.3466C15.4529 17.0015 15.5591 17.0007 15.6649 16.9959C15.7561 16.9915 15.849 16.98 15.9375 16.9586C16.1672 16.9035 16.3414 16.7676 16.4745 16.5792C16.479 16.5728 16.4855 16.5683 16.4921 16.5636C16.4948 16.5617 16.4974 16.5599 16.5 16.5579V17.9308C16.4726 17.9885 16.4262 18.0054 16.3623 18.0054C15.2865 18.0045 14.2116 18.0045 13.1358 18.0054C13.0738 18.0054 13.0274 17.9885 13 17.9317ZM14.5451 16.6119V16.8048C14.5451 16.8212 14.5451 16.8377 14.545 16.8541C14.5449 16.9034 14.5447 16.9525 14.5461 17.0012C14.5461 17.0616 14.5889 17.1034 14.6509 17.1042C14.7165 17.1051 14.7831 17.1051 14.8487 17.1042C14.9126 17.1042 14.9554 17.0616 14.9554 16.9994C14.9563 16.8696 14.9563 16.7399 14.9554 16.6102C14.9554 16.548 14.9126 16.5062 14.8487 16.5053C14.7831 16.5044 14.7184 16.5044 14.6536 16.5053C14.588 16.5053 14.5451 16.5471 14.5451 16.6119Z" fill="white"/>
</g>
<defs>
<clipPath id="clip0_611_222">
<rect width="20" height="20" fill="white"/>
</clipPath>
</defs>
</svg>
