<svg width="120" height="120" viewBox="0 0 120 120" fill="none" xmlns="http://www.w3.org/2000/svg">
<g clip-path="url(#clip0_2444_2886)">
<path d="M73.4375 -0.9375C78.3392 -1.04385 78.3392 -1.04385 83.3398 -1.15234C93.9792 0.186084 99.2387 3.29533 107.5 10C119.938 28.2134 120.477 51.8661 120.938 73.2812C121.008 76.5716 121.079 79.8619 121.152 83.252C119.8 94.1026 117.024 99.1936 110 107.5C92.1201 120.816 68.0964 120.472 46.5625 120.938C43.2947 121.008 40.027 121.079 36.6602 121.152C26.0208 119.814 20.7613 116.705 12.5 110C0.0615537 91.7866 -0.476879 68.1339 -0.9375 46.7188C-1.0084 43.4284 -1.0793 40.1381 -1.15234 36.748C0.199687 25.8974 2.97614 20.8064 10 12.5C27.8799 -0.816069 51.9036 -0.472132 73.4375 -0.9375Z" fill="#F8B124"/>
<path d="M82.5005 27.5002C93.1107 38.1105 92.7883 58.1816 93.2817 72.6565C93.0239 75.9049 92.7661 79.1533 92.5005 82.5002C77.7399 92.3406 59.4223 93.0047 42.0317 93.4084C37.5005 92.5002 37.5005 92.5002 32.5005 85.0002C28.8398 69.5439 26.119 53.3868 27.5005 37.5002C39.9495 25.0512 65.8412 26.4425 82.5005 27.5002Z" fill="#F8F8F6"/>
<path d="M73.4375 -0.9375C78.3392 -1.04385 78.3392 -1.04385 83.3398 -1.15234C93.9792 0.186084 99.2387 3.29533 107.5 10C119.938 28.2134 120.477 51.8661 120.938 73.2812C121.008 76.5716 121.079 79.8619 121.152 83.252C119.8 94.1026 117.024 99.1936 110 107.5C92.1201 120.816 68.0964 120.472 46.5625 120.938C43.2947 121.008 40.027 121.079 36.6602 121.152C26.0208 119.814 20.7613 116.705 12.5 110C0.0615537 91.7866 -0.476879 68.1339 -0.9375 46.7188C-1.0084 43.4284 -1.0793 40.1381 -1.15234 36.748C0.199687 25.8974 2.97614 20.8064 10 12.5C27.8799 -0.816069 51.9036 -0.472132 73.4375 -0.9375ZM12.5 22.5C1.18674 39.4699 7.16571 66.7325 10.752 85.9863C14.0644 98.3294 19.2454 105.33 30 112.5C52.2539 114.677 81.8979 114.906 101.562 102.812C108.856 96.2869 112.053 91.4389 113.164 81.6504C113.569 44.4581 113.569 44.4581 97.5 12.5C75.4252 -1.70847 31.8977 6.08655 12.5 22.5Z" fill="#F7F7F5"/>
<path d="M55 7.49986C83.7845 5.96241 83.7845 5.96241 96.5625 11.2499C109.481 24.8481 111.539 41.8497 112.5 59.9999C112.632 62.3427 112.764 64.6856 112.9 67.0995C113.622 90.4855 113.622 90.4855 105 99.9999C95.2782 106.971 87.6508 108.733 75.7812 109.531C72.9356 109.753 70.09 109.976 67.1582 110.205C60 110 60 110 55 105C55.9375 98.4374 55.9375 98.4374 57.5 92.4999C68.2581 88.8264 79.0574 85.5638 90 82.4999C90.5638 65.3043 89.0987 49.2537 85 32.4999C81.2564 28.7563 77.5294 29.1698 72.3438 28.5936C69.0953 28.2327 65.8469 27.8717 62.5 27.4999C62.6547 25.592 62.8094 23.6842 62.9688 21.7186C62.4149 13.7803 60.7056 12.6065 55 7.49986Z" fill="#109B4F"/>
<path d="M60.0004 9.99981C61.6504 11.6498 63.3004 13.2998 65.0004 14.9998C64.0629 21.5623 64.0629 21.5623 62.5004 27.4998C51.7423 31.1733 40.943 34.4359 30.0004 37.4998C29.1754 44.0998 28.3504 50.6998 27.5004 57.4998C20.8337 57.4998 14.1671 57.4998 7.50039 57.4998C5.96073 33.0791 5.96073 33.0791 11.2504 22.4998C25.3703 11.2038 42.0458 7.13154 60.0004 9.99981Z" fill="#E22C2D"/>
<path d="M107.5 60C109.15 60 110.8 60 112.5 60C113.926 90.1509 113.926 90.1509 105 100C95.2782 106.971 87.6508 108.733 75.7812 109.531C72.9356 109.754 70.09 109.976 67.1582 110.205C60 110 60 110 55 105C55.9375 98.4375 55.9375 98.4375 57.5 92.5C68.2581 88.8265 79.0574 85.5639 90 82.5C90.825 75.9 91.65 69.3 92.5 62.5C95.5164 62.5773 95.5164 62.5773 98.5938 62.6562C104.834 63.2408 104.834 63.2408 107.5 60Z" fill="#2970B3"/>
</g>
<defs>
<clipPath id="clip0_2444_2886">
<rect width="120" height="120" fill="white"/>
</clipPath>
</defs>
</svg>
