<svg width="8" height="10" viewBox="0 0 8 10" fill="none" xmlns="http://www.w3.org/2000/svg">
<path d="M6.05837 3.3602C6.10052 3.80987 6.13011 4.60566 5.8646 4.94439C5.8646 4.94439 5.98959 4.0702 4.86911 2.97339C4.41796 2.53186 4.31368 1.93131 4.47121 1.4809C4.5607 1.22575 4.72415 1.01496 4.86615 0.867787C4.94899 0.781255 4.88538 0.638515 4.76483 0.643692C4.0356 0.676234 2.85374 0.87888 2.35156 2.13914C2.13116 2.69235 2.11489 3.26405 2.21991 3.84537C2.28647 4.21664 2.52314 5.04202 1.98324 5.14334C1.59792 5.21582 1.41154 4.90963 1.32797 4.68924C1.29321 4.59753 1.17265 4.5746 1.10757 4.64782C0.456733 5.38815 0.401263 6.26012 0.535868 7.0108C0.796203 8.46187 2.26576 9.518 3.72571 9.518C5.54953 9.518 7.00134 8.47444 7.37779 6.58554C7.52941 5.82302 7.45249 4.31426 6.27655 3.24926C6.18927 3.16938 6.04653 3.24038 6.05837 3.3602Z" fill="url(#paint0_radial)"/>
<path d="M3.03199 5.41769C3.79361 4.51788 3.4526 3.49118 3.26575 3.08204C3.24062 3.0282 3.30765 2.97744 3.36043 3.01051C3.68804 3.21509 4.35918 3.69652 4.6717 4.37407C5.09483 5.29003 5.06467 5.73839 4.81414 6.28597C4.66333 6.6159 4.83844 6.68588 4.92642 6.69819C5.01188 6.71049 5.09064 6.65819 5.15348 6.60359C5.33426 6.44428 5.46309 6.24188 5.5255 6.0191C5.5389 5.97142 5.60677 5.95834 5.63777 5.99757C5.87238 6.29519 5.99387 6.77278 5.99973 7.1104C6.01817 8.15403 5.07891 9 3.94276 9C2.51083 9 1.46768 7.54647 2.29047 6.33134C2.52926 5.97757 2.75381 5.74608 3.03199 5.41769Z" fill="url(#paint1_radial)"/>
<defs>
<radialGradient id="paint0_radial" cx="0" cy="0" r="1" gradientUnits="userSpaceOnUse" gradientTransform="translate(4.08694 9.541) rotate(-0.248662) scale(5.22057 8.56592)">
<stop offset="0.314" stop-color="#FF9800"/>
<stop offset="0.662" stop-color="#FF6D00"/>
<stop offset="0.972" stop-color="#C20632"/>
</radialGradient>
<radialGradient id="paint1_radial" cx="0" cy="0" r="1" gradientUnits="userSpaceOnUse" gradientTransform="translate(3.864 3.62103) rotate(89.3695) scale(5.6801 4.65706)">
<stop offset="0.214" stop-color="#FFF176"/>
<stop offset="0.328" stop-color="#FFF27D"/>
<stop offset="0.487" stop-color="#FFF48F"/>
<stop offset="0.672" stop-color="#FFF7AD"/>
<stop offset="0.793" stop-color="#FFF9C4"/>
<stop offset="0.822" stop-color="#FFF8BD" stop-opacity="0.804"/>
<stop offset="0.863" stop-color="#FFF6AB" stop-opacity="0.529"/>
<stop offset="0.91" stop-color="#FFF38D" stop-opacity="0.209"/>
<stop offset="0.941" stop-color="#FFF176" stop-opacity="0"/>
</radialGradient>
</defs>
</svg>
