<svg width="25" height="24" viewBox="0 0 25 24" fill="none" xmlns="http://www.w3.org/2000/svg">
<g clip-path="url(#clip0_1448_12223)">
<path d="M12.5603 13.7266C12.2014 13.7293 11.8537 13.8521 11.5727 14.0755C11.2918 14.2988 11.0937 14.6098 11.01 14.9589C10.9264 15.3079 10.9621 15.675 11.1114 16.0014C11.2606 16.3278 11.5149 16.5948 11.8337 16.7599V18.6666H13.167V16.8199C13.5112 16.6788 13.7958 16.4227 13.9722 16.0952C14.1487 15.7677 14.206 15.3891 14.1344 15.024C14.0628 14.659 13.8667 14.3301 13.5797 14.0935C13.2926 13.8568 12.9323 13.7272 12.5603 13.7266Z" fill="#00AA06"/>
<path d="M18.6818 9.78888V6.8129C18.715 5.30536 18.0832 3.84737 16.9247 2.75797C15.7661 1.66858 14.1752 1.03648 12.5 1C10.8248 1.03648 9.23387 1.66858 8.07533 2.75797C6.9168 3.84737 6.28499 5.30536 6.31818 6.8129V9.78888H4V21.6094C4 21.9782 4.16282 22.3319 4.45265 22.5927C4.74248 22.8535 5.13557 23 5.54545 23H19.4545C19.8644 23 20.2575 22.8535 20.5473 22.5927C20.8372 22.3319 21 21.9782 21 21.6094V9.78888H18.6818ZM7.86364 6.8129C7.83032 5.67412 8.29927 4.56978 9.16801 3.74115C10.0368 2.91253 11.2347 2.427 12.5 2.39064C13.7653 2.427 14.9632 2.91253 15.832 3.74115C16.7007 4.56978 17.1697 5.67412 17.1364 6.8129V9.78888H7.86364V6.8129ZM5.54545 21.6094V11.1795H19.4545V21.6094H5.54545Z" fill="#00AA06"/>
</g>
<defs>
<clipPath id="clip0_1448_12223">
<rect width="24" height="24" fill="white" transform="translate(0.5)"/>
</clipPath>
</defs>
</svg>
